<?xml version="1.0" standalone="no"?><!DOCTYPE svg PUBLIC "-//W3C//DTD SVG 1.1//EN" "http://www.w3.org/Graphics/SVG/1.1/DTD/svg11.dtd" ><svg xmlns="http://www.w3.org/2000/svg"><metadata></metadata><defs><font id="Luthon Southard Script:Version 1.00" horiz-adv-x="1375"><font-face font-family="Luthon Southard Script" font-weight="400" font-stretch="normal" units-per-em="1000" panose-1="2 0 6 0 0 0 0 0 0 0" ascent="946" descent="-543" x-height="0" bbox="-333 -543 1390 888" underline-thickness="50" underline-position="-75" unicode-range="U+0020-e019" /><missing-glyph horiz-adv-x="500"  /><glyph glyph-name="" unicode="!" d="M218 534 q-4 1 -7 0 q-4 -2 -5 -6 q-23 -64 -45 -129 q-22 -64 -40 -118 q-30 -97 -34 -122 q-5 -25 -1 -26 q3 -5 9 -5 q1 0 3 1 q1 0 2 1 q3 2 4 5 q1 3 0 7 q1 19 35 127 q33 108 85 253 q1 4 0 7 q-2 3 -6 5 l0 0 ZM72 35 q-9 1 -15 -1 q-6 -3 -9 -6 q-4 -4 -7 -9 q-3 -5 -4 -10 q-3 -2 -5 -6 q-1 -3 0 -8 q0 -3 3 -6 q0 -1 0 -2 q1 -5 4 -8 q4 -4 9 -4 q0 0 0 0 q5 1 9 5 q4 4 4 9 q-1 0 -1 1 q19 5 28 12 q8 6 7 14 q-1 11 -10 15 q-8 4 -13 4 l0 0 Z" /><glyph glyph-name="" unicode="&quot;" d="M107 534 q-4 1 -7 0 q-4 -2 -5 -6 l-35 -108 q-1 -4 1 -8 q2 -3 6 -5 q2 0 3 0 q3 0 6 2 q2 2 3 5 l34 108 q1 4 0 7 q-2 3 -6 5 l0 0 ZM155 534 q-4 1 -7 0 q-3 -2 -5 -6 l-34 -108 q-1 -4 0 -8 q2 -3 6 -5 q2 0 3 0 q3 0 6 2 q2 2 4 5 l34 108 q1 4 -1 7 q-2 3 -6 5 l0 0 Z" /><glyph glyph-name="" unicode="#" d="M272 120 q-22 3 -43 4 q5 15 10 31 q5 15 11 31 q22 -2 46 -5 q4 -1 7 2 q3 2 4 7 q1 4 -2 7 q-2 3 -7 3 q-21 3 -42 5 q17 48 36 92 q19 43 37 79 q2 4 1 7 q-1 4 -5 6 q-4 2 -8 1 q-3 -1 -5 -5 q-20 -37 -39 -83 q-19 -46 -37 -96 q-45 3 -94 0 q18 52 30 88 q12 36 15 42 q2 3 2 7 q-1 4 -4 6 q-4 2 -8 2 q-4 -1 -6 -5 q-3 -6 -18 -46 q-14 -40 -33 -96 q-27 -3 -59 -9 q-4 -1 -6 -4 q-3 -3 -2 -7 q1 -4 4 -6 q2 -2 6 -2 q0 0 2 0 q25 4 49 7 q-12 -32 -22 -65 q-13 -1 -26 -3 q-13 -2 -27 -4 q-4 0 -6 -3 q-3 -3 -2 -8 q0 -3 3 -5 q3 -3 6 -3 q1 0 2 0 q22 3 43 6 q-9 -30 -17 -55 q-9 -26 -14 -44 q-1 -5 0 -8 q2 -3 6 -5 q2 0 3 0 q3 0 6 2 q2 2 3 5 q8 23 16 51 q9 27 19 56 q48 6 96 5 q-12 -38 -21 -73 q-9 -35 -15 -64 q-1 -4 2 -7 q2 -3 6 -4 q0 0 2 0 q3 0 6 2 q2 2 3 5 q4 10 11 27 q6 16 10 23 q2 3 1 7 q-1 4 -4 6 q-1 1 -3 1 q5 18 10 37 q6 20 12 40 q22 -1 46 -4 q5 -1 7 2 q3 2 4 6 q1 5 -2 7 q-2 3 -6 4 l0 0 ZM209 125 q-24 1 -48 0 q-23 -2 -48 -4 q6 16 11 32 q6 16 11 32 q51 5 94 2 q-11 -32 -20 -62 l0 0 Z" /><glyph glyph-name="" unicode="$" d="M208 371 q-9 14 -26 17 l12 37 q1 4 0 7 q-2 3 -6 5 q-4 1 -7 0 q-3 -2 -5 -6 l-14 -40 q-3 -1 -6 -1 q-32 -4 -62 -24 q-29 -21 -42 -47 q-17 -42 -6 -76 q12 -33 32 -63 q5 -7 9 -14 l-73 -215 q-11 0 -20 4 q-10 4 -15 12 q-2 3 -6 4 q-4 0 -8 -2 q-3 -2 -4 -6 q0 -4 2 -7 q8 -11 19 -17 q12 -6 26 -8 l-12 -36 q-1 -5 0 -8 q2 -3 6 -5 q2 0 3 0 q3 0 6 2 q2 1 3 4 l15 44 q2 0 4 1 q1 0 3 0 q31 6 60 31 q28 24 38 66 q9 44 0 78 q-9 33 -26 60 l68 202 q5 -1 9 -3 q4 -3 7 -7 q7 -7 6 -31 q0 -24 -22 -74 q-1 -4 0 -8 q1 -3 5 -5 q4 -1 8 0 q3 1 5 5 q20 44 23 76 q4 31 -9 48 l0 0 ZM115 34 q-8 -34 -31 -54 q-22 -21 -48 -27 l64 190 q12 -22 17 -49 q5 -26 -2 -60 l0 0 ZM95 190 q0 0 0 0 q-20 29 -30 58 q-10 28 5 63 q10 21 35 38 q24 17 51 21 l-61 -180 Z" /><glyph glyph-name="" unicode="%" d="M332 412 q-2 2 -6 3 q-4 0 -7 -3 q-2 -1 -5 -4 q-2 -2 -6 -6 q-58 -51 -111 -58 q-54 -7 -87 -1 q-14 2 -23 2 q-10 0 -15 -4 q-4 -3 -6 -12 q0 -7 4 -12 q5 -5 10 -7 q-22 -16 -34 -40 q-12 -24 -12 -47 q2 -27 24 -35 q17 -4 35 9 q17 14 28 39 q10 25 9 49 q0 9 -3 17 q-4 8 -10 13 q0 1 0 2 q-2 3 -5 5 q-3 2 -6 1 q-1 1 -3 2 q2 -1 5 -1 q27 -4 67 -3 q40 2 87 24 q-28 -38 -62 -85 q-33 -47 -65 -94 q-32 -47 -57 -87 q-26 -41 -45 -73 q-29 -51 -36 -71 q-7 -21 -5 -27 q1 -4 4 -7 q3 -2 7 -4 q1 0 2 0 q4 0 6 2 q3 2 4 5 q1 3 0 6 q-2 2 -4 4 q-1 10 30 66 q30 56 110 176 q53 78 100 142 q47 64 71 90 q2 2 5 5 q3 3 5 5 q3 3 3 7 q0 4 -3 7 l0 0 ZM103 301 q8 -6 8 -17 q0 -19 -8 -40 q-9 -21 -22 -32 q-10 -7 -18 -5 q-9 3 -9 17 q-1 18 12 41 q13 23 37 36 l0 0 ZM219 94 q-8 4 -16 4 q-8 0 -16 -5 q-5 -3 -10 -7 q-4 -4 -7 -9 q-17 -19 -25 -41 q-7 -23 -4 -42 q2 -11 9 -18 q6 -7 16 -9 q1 -1 3 -1 q1 0 2 0 q14 0 27 14 q12 13 22 37 q7 18 10 43 q2 24 -11 34 l0 0 ZM193 5 q-6 -10 -12 -15 q-7 -5 -12 -4 q-1 0 -4 2 q-3 2 -5 10 q-1 11 2 24 q3 13 10 26 q1 0 1 0 q4 0 7 3 q3 2 3 7 q0 1 1 3 q0 2 1 4 q3 2 6 5 q3 2 6 4 q1 1 2 2 q1 1 2 2 q3 1 5 0 q2 0 3 -1 q4 -6 0 -28 q-4 -22 -16 -44 l0 0 Z" /><glyph glyph-name="" unicode="&amp;" d="M379 97 q-4 1 -7 -2 q-3 -2 -4 -6 q-3 -17 -36 -50 q-33 -33 -81 -61 q-5 38 -7 82 q-2 45 0 94 q2 35 8 66 q6 31 15 57 q4 3 7 6 q50 47 73 75 q24 27 21 42 q-2 9 -11 14 q-4 2 -10 2 q-7 0 -16 -5 q-19 -11 -41 -42 q-22 -32 -40 -81 q-38 -36 -78 -78 q-40 -42 -70 -84 q-17 -25 -27 -48 q-10 -22 -14 -42 q-7 -46 25 -81 q20 -22 51 -26 q31 -5 70 8 q7 2 15 5 q7 3 14 6 q7 -39 18 -68 q10 -28 23 -42 q5 -6 12 -9 q6 -3 12 -3 q5 0 7 3 q3 2 3 7 q0 4 -3 7 q-2 3 -7 3 q-4 0 -10 6 q-11 11 -20 38 q-10 28 -17 67 q53 29 91 66 q38 37 43 63 q0 9 -9 11 l0 0 ZM337 392 q4 3 7 4 q3 1 4 1 q0 0 0 0 q0 0 0 0 q0 -1 1 -1 q0 0 0 0 q1 -1 -4 -9 q-4 -7 -19 -24 q-17 -18 -41 -42 q13 27 27 45 q14 18 25 26 l0 0 ZM225 155 q-3 -50 0 -98 q2 -47 8 -89 q-8 -4 -16 -7 q-8 -3 -16 -6 q-34 -11 -59 -7 q-25 3 -42 21 q-48 49 18 146 q24 34 56 69 q31 34 65 66 q-5 -22 -9 -46 q-4 -23 -5 -49 l0 0 Z" /><glyph glyph-name="" unicode="&#39;" d="M109 534 q-5 1 -8 0 q-3 -2 -5 -6 l-34 -108 q-1 -4 0 -7 q2 -4 6 -5 q2 -1 3 -1 q4 0 6 2 q3 2 4 5 l34 108 q1 4 0 8 q-2 3 -6 4 l0 0 Z" /><glyph glyph-name="" unicode="(" d="M239 466 q3 3 3 7 q0 4 -4 7 q-3 2 -7 2 q-4 0 -6 -3 q-114 -132 -171 -304 q-58 -171 -46 -340 q2 -9 10 -9 q1 0 1 0 q4 0 6 3 q3 3 3 7 q-12 165 44 333 q56 168 167 297 l0 0 Z" /><glyph glyph-name="" unicode=")" d="M174 473 q0 5 -3 7 q-3 3 -7 2 q-5 0 -7 -3 q-3 -3 -2 -7 q12 -165 -44 -333 q-57 -168 -168 -297 q-2 -3 -2 -7 q0 -4 3 -7 q3 -2 6 -2 q5 0 8 3 q114 132 171 304 q58 171 45 340 l0 0 Z" /><glyph glyph-name="" unicode="*" d="M173 495 q-7 -3 -13 -6 q-6 -4 -11 -6 q-3 -1 -6 -3 q4 6 8 13 q4 7 8 15 q2 4 1 7 q-1 4 -5 6 q-3 2 -7 1 q-4 -1 -6 -4 q-5 -10 -10 -19 q-5 -8 -9 -16 q-5 14 -11 24 q-2 4 -5 5 q-4 1 -8 -1 q-4 -2 -5 -5 q-1 -4 1 -8 q6 -12 12 -28 q-10 2 -18 4 q-8 2 -13 2 q-5 1 -7 -2 q-3 -2 -4 -7 q0 -4 3 -7 q2 -3 6 -3 q4 -1 10 -2 q5 -1 12 -2 q-6 -4 -14 -9 q-7 -5 -17 -12 q-3 -2 -4 -6 q0 -4 2 -8 q2 -2 4 -3 q2 -1 4 -1 q3 0 5 2 q12 8 21 14 q-6 -13 -14 -27 q-1 -4 0 -8 q1 -4 5 -6 q1 0 2 0 q1 -1 2 -1 q6 0 9 6 q5 10 9 19 q5 9 9 18 q1 1 1 2 q0 1 1 2 q4 -10 7 -19 q3 -10 6 -18 q1 -3 3 -5 q3 -2 6 -2 q2 0 3 1 q4 1 6 5 q1 3 0 7 q-2 9 -6 19 q-3 9 -7 19 q20 -4 33 -7 q1 0 1 0 q4 0 7 3 q2 2 3 6 q1 4 -2 7 q-2 3 -6 4 q-10 2 -27 5 q6 3 11 6 q9 5 23 12 q4 2 5 6 q1 4 -1 7 q-2 4 -5 5 q-4 1 -8 -1 l0 0 Z" /><glyph glyph-name="" unicode="+" d="M231 171 q-16 1 -35 1 q-20 1 -41 1 l26 73 q1 4 -1 7 q-1 3 -5 5 q-4 1 -8 0 q-3 -2 -5 -6 l-27 -79 q-26 0 -50 0 q-25 0 -45 0 q-4 0 -7 -3 q-3 -2 -3 -6 q0 -5 3 -7 q3 -3 7 -3 q20 0 42 0 q23 0 46 0 l-33 -94 q-1 -4 1 -8 q1 -3 5 -5 q2 0 4 0 q6 0 9 6 l35 101 q23 -1 44 -1 q20 0 37 -1 q1 0 1 0 q4 0 6 3 q3 2 3 6 q1 4 -2 7 q-2 3 -7 3 l0 0 Z" /><glyph glyph-name="" unicode="," d="M54 22 q-2 4 -5 6 q-3 2 -7 1 q-4 -1 -6 -4 q-2 -4 -1 -8 q4 -15 0 -32 q-3 -17 -13 -32 q-8 -13 -20 -21 q-11 -9 -24 -11 q-4 0 -6 -4 q-3 -3 -2 -7 q1 -4 4 -6 q2 -2 6 -2 q1 0 1 0 q17 3 32 13 q15 10 26 27 q12 18 16 39 q4 21 -1 41 l0 0 Z" /><glyph glyph-name="" unicode="." d="M75 16 q-1 11 -10 15 q-8 4 -13 4 q-9 1 -15 -1 q-6 -3 -9 -6 q-4 -4 -7 -9 q-3 -5 -4 -10 q-3 -2 -5 -6 q-1 -3 0 -8 q0 -3 3 -6 q0 -1 0 -2 q0 -5 4 -8 q4 -4 9 -4 q0 0 0 0 q5 1 9 5 q4 4 3 9 q0 0 0 1 q19 5 28 12 q8 6 7 14 l0 0 Z" /><glyph glyph-name="" unicode="/" d="M253 380 q-3 2 -7 1 q-4 -1 -6 -4 q-27 -42 -93 -170 q-66 -128 -125 -265 q-1 -4 0 -7 q1 -3 5 -5 q3 -1 4 -1 q3 0 6 2 q2 1 3 4 q58 134 124 262 q66 128 92 169 q2 4 2 8 q-1 4 -5 6 l0 0 Z" /><glyph glyph-name="" unicode="0" d="M191 393 q-41 3 -77 -42 q-37 -45 -60 -108 q-5 -13 -9 -27 q-4 -14 -7 -28 q-7 -20 -12 -35 q-17 -53 -23 -102 q-6 -50 0 -83 q4 -25 13 -34 q9 -9 18 -10 q2 0 3 0 q32 4 62 47 q30 44 49 85 q30 60 50 122 q21 63 28 112 q7 58 -5 80 q-12 22 -30 23 l0 0 ZM207 293 q-7 -48 -27 -109 q-20 -61 -49 -120 q-32 -64 -57 -93 q-25 -29 -38 -27 q-5 0 -8 7 q-4 7 -6 20 q-4 25 -1 60 q3 35 12 74 q5 -24 21 -36 q4 -1 8 -1 q4 1 6 4 q2 4 1 8 q-1 4 -4 6 q-13 9 -15 34 q-2 24 6 60 q15 39 34 68 q19 29 41 41 q4 2 5 6 q1 3 0 7 q-2 4 -6 5 q-3 1 -7 0 q-15 -9 -29 -22 q21 40 46 66 q24 25 48 23 q18 -5 20 -31 q2 -27 -1 -50 l0 0 Z" /><glyph glyph-name="" unicode="1" d="M172 386 q-3 2 -7 1 q-4 -1 -6 -4 q-25 -39 -48 -66 q-22 -27 -31 -30 q-5 0 -7 -3 q-3 -2 -3 -7 q0 -4 3 -6 q3 -3 7 -3 q5 -1 15 6 q10 7 30 30 q1 0 1 1 q0 0 0 0 q-50 -131 -81 -243 q-32 -112 -34 -121 q-1 -4 1 -7 q2 -4 6 -5 q2 0 3 0 q3 0 6 2 q2 2 3 5 q2 13 43 155 q41 142 103 283 q2 3 1 7 q-1 3 -5 5 l0 0 Z" /><glyph glyph-name="" unicode="2" d="M88 -44 q-17 0 -37 -2 q-20 -1 -39 -3 q15 18 30 39 q87 108 154 210 q68 102 59 158 q-6 21 -27 30 q-45 13 -87 -27 q-42 -39 -57 -74 q-6 -15 -4 -23 q3 -7 8 -9 q4 -1 8 0 q3 1 5 5 q3 6 -2 11 q2 11 19 36 q18 26 45 47 q12 10 28 15 q15 6 30 0 q12 -4 15 -17 q6 -50 -63 -152 q-69 -102 -146 -198 q-24 -31 -45 -58 q-3 -5 0 -11 q1 -2 3 -4 q3 -1 5 -1 q1 1 1 1 q46 5 89 8 q43 2 59 -1 q2 -3 3 -5 q4 -2 8 -2 q4 0 6 4 q2 3 3 7 q0 3 -2 6 q-1 5 -14 8 q-13 3 -55 2 l0 0 Z" /><glyph glyph-name="" unicode="3" d="M127 140 q-9 8 -15 15 q-7 8 -7 13 q2 10 15 29 q14 19 30 38 q34 39 55 75 q22 37 5 63 q-9 11 -27 16 q-17 4 -39 0 q-22 -4 -43 -17 q-20 -14 -28 -38 q-1 -4 1 -7 q2 -3 6 -5 q4 -1 8 1 q3 2 4 6 q5 17 21 27 q16 10 34 14 q17 3 29 0 q13 -2 18 -9 q10 -17 -11 -50 q-22 -32 -48 -63 q-20 -25 -34 -44 q-14 -20 -15 -34 q-1 -12 7 -22 q8 -11 20 -22 q24 -20 39 -51 q14 -30 -15 -79 q-26 -37 -57 -46 q-32 -9 -51 -1 q-5 1 -11 6 q-7 5 -6 15 q1 4 -2 7 q-2 3 -6 4 q-4 1 -7 -2 q-3 -2 -4 -6 q-2 -14 6 -25 q7 -11 23 -17 q14 -5 30 -5 q27 0 54 14 q27 15 47 46 q35 59 17 95 q-17 37 -43 59 l0 0 Z" /><glyph glyph-name="" unicode="4" d="M227 373 q1 4 0 8 q-2 3 -6 5 q-4 1 -8 0 q-3 -2 -5 -6 q-8 -22 -16 -46 q-9 -24 -19 -50 q-13 -36 -26 -74 q-14 -38 -27 -75 q-34 -2 -61 -4 q-27 -2 -42 -3 q3 9 9 22 q6 13 13 28 q18 39 40 92 q22 52 38 106 q1 4 -1 7 q-2 3 -6 5 q-4 1 -7 -1 q-3 -2 -5 -6 q-16 -52 -37 -104 q-22 -52 -40 -91 q-7 -14 -12 -25 q-5 -12 -8 -21 q-5 -10 -6 -18 q-2 -9 5 -13 q1 -1 2 -1 q1 0 4 0 q5 0 19 1 q14 1 43 3 q23 2 45 3 q-13 -36 -24 -69 q-19 -57 -28 -89 q-7 -26 -7 -36 q0 -11 3 -15 q2 -2 4 -4 q3 -1 6 -1 q4 0 7 3 q3 2 3 7 q0 2 -1 4 q-1 2 -2 3 q-1 5 6 32 q7 28 30 97 q11 33 24 69 q23 2 32 2 q4 1 7 4 q3 2 2 7 q0 4 -3 6 q-3 3 -7 3 q-12 -1 -24 -2 q13 35 26 71 q12 36 25 70 q10 26 19 51 q8 24 16 45 l0 0 Z" /><glyph glyph-name="" unicode="5" d="M81 181 q-15 10 -26 19 q-11 10 -13 20 q-1 11 15 51 q16 40 47 90 q5 0 11 0 q29 1 56 1 q27 1 47 2 q5 0 7 3 q3 3 3 8 q-1 4 -4 6 q-2 3 -7 3 q-20 -1 -47 -2 q-26 -1 -53 -1 q2 3 4 6 q2 3 2 7 q-1 5 -4 7 q-4 2 -8 2 q-4 -1 -6 -5 q-6 -8 -12 -17 q-16 -1 -30 -1 q-14 0 -24 -1 q-4 0 -6 -3 q-3 -3 -3 -7 q0 -4 3 -6 q3 -3 7 -3 q0 0 0 0 q8 0 19 1 q10 0 22 0 q-27 -46 -44 -86 q-16 -40 -15 -57 q3 -17 17 -29 q13 -13 31 -24 q29 -18 49 -42 q20 -25 12 -70 q-14 -60 -44 -86 q-29 -26 -53 -23 q-12 1 -18 9 q-7 7 -7 21 q0 5 -3 7 q-2 3 -6 3 q-5 0 -7 -3 q-3 -2 -3 -7 q0 -21 12 -34 q11 -13 30 -16 q3 0 6 0 q16 0 32 7 q16 7 30 21 q13 12 27 35 q14 24 23 62 q9 55 -16 85 q-24 30 -53 47 l0 0 Z" /><glyph glyph-name="" unicode="6" d="M196 396 q-36 -22 -72 -71 q-36 -49 -66 -117 q-29 -66 -43 -125 q-13 -59 -7 -98 q5 -28 17 -40 q12 -12 25 -15 q6 -2 14 -2 q20 0 40 15 q20 16 37 45 q12 22 21 48 q9 26 13 53 q3 18 1 41 q-2 24 -16 40 q-9 9 -21 12 q-13 3 -27 0 q-16 -4 -30 -13 q-15 -10 -28 -25 q26 75 66 141 q41 65 86 95 q3 2 4 6 q1 4 -1 7 q-2 4 -6 5 q-4 0 -7 -2 l0 0 ZM116 163 q7 2 15 1 q9 -1 15 -8 q15 -18 9 -66 q-7 -48 -31 -92 q-8 -16 -24 -32 q-16 -17 -36 -18 q-4 0 -9 1 q-22 6 -27 39 q-3 18 -1 42 q2 23 8 50 q5 2 7 6 q12 32 33 52 q21 20 41 25 l0 0 Z" /><glyph glyph-name="" unicode="7" d="M226 375 q5 6 1 12 q-2 3 -4 4 q-3 2 -6 1 q-46 -11 -91 -13 q-46 -1 -77 7 q-4 1 -7 -1 q-4 -2 -5 -6 q-1 -4 1 -7 q2 -3 6 -5 q29 -7 69 -7 q39 0 82 7 q-25 -37 -56 -97 q-32 -59 -59 -118 q-19 -39 -34 -74 q-14 -36 -25 -63 q-15 -43 -17 -60 q-1 -17 3 -22 q3 -4 8 -4 q3 0 6 1 q3 2 4 6 q0 4 -2 8 q-3 7 14 57 q17 50 63 148 q38 81 73 143 q34 61 53 83 l0 0 Z" /><glyph glyph-name="" unicode="8" d="M262 386 q-16 14 -53 7 q-38 -7 -66 -18 q-25 -8 -52 -26 q-28 -18 -30 -42 q0 -13 6 -26 q6 -13 14 -28 q7 -11 14 -26 q7 -14 15 -33 q-34 -28 -54 -55 q-20 -27 -30 -49 q-16 -34 -19 -68 q-3 -33 7 -60 q8 -21 23 -32 q15 -12 35 -12 q4 0 7 1 q3 0 7 1 q15 3 28 13 q13 9 23 25 q19 33 23 80 q4 46 -8 92 q-4 13 -7 24 q-3 12 -7 22 q5 8 12 16 q6 8 12 16 q6 4 12 8 q3 2 4 5 q1 4 0 8 q2 2 4 5 q1 3 3 5 q47 59 69 95 q21 36 8 52 l0 0 ZM120 -31 q-15 -25 -38 -30 q-17 -4 -30 4 q-13 8 -20 26 q-9 23 -6 52 q4 30 18 61 q8 18 23 40 q16 22 41 45 q-12 -18 -19 -33 q-2 -4 -1 -8 q1 -3 5 -5 q4 -1 8 0 q3 1 5 4 q8 15 18 31 q5 -15 9 -31 q11 -42 8 -85 q-4 -42 -21 -71 l0 0 ZM170 251 q-10 -14 -21 -28 q-7 -4 -12 -8 q-6 -4 -11 -8 q-8 17 -15 31 q-7 14 -13 24 q-8 14 -12 25 q-5 10 -5 20 q0 9 15 21 q14 12 40 23 q30 13 56 19 q26 6 42 6 q11 0 13 -3 q2 1 0 -7 q-1 -8 -16 -32 q-11 -18 -27 -39 q-16 -21 -34 -44 l0 0 Z" /><glyph glyph-name="" unicode="9" d="M235 392 q-4 1 -7 0 q-3 -1 -5 -5 q-4 -9 -11 -23 q-6 -13 -14 -30 q3 15 1 29 q-2 14 -11 20 q-7 4 -17 4 q-11 0 -25 -10 q-20 -14 -41 -46 q-22 -32 -42 -77 q-16 -35 -26 -73 q-11 -39 -8 -65 q2 -13 8 -19 q6 -6 12 -7 q11 -5 33 13 q23 19 66 91 q10 18 20 37 q10 18 19 37 q-50 -163 -91 -246 q-26 -52 -41 -65 q-15 -14 -19 -12 q-6 2 -11 10 q-4 8 -5 13 q-1 5 -4 7 q-3 2 -8 1 q-4 -1 -6 -4 q-2 -3 -1 -8 q0 -2 7 -19 q8 -16 28 -19 q0 0 1 0 q17 0 36 21 q18 22 40 66 q28 56 60 148 q32 92 68 219 q1 4 -1 7 q-1 3 -5 5 l0 0 ZM131 204 q-43 -71 -60 -85 q-17 -13 -17 -10 q-2 1 -4 4 q-1 3 -2 6 q-3 19 6 52 q9 34 27 75 q18 42 38 72 q20 30 38 43 q4 3 8 5 q4 2 8 2 q2 0 5 -2 q4 -5 2 -24 q-3 -18 -8 -30 q-1 -4 0 -8 q1 -3 5 -5 q1 -1 4 -1 q-11 -23 -24 -47 q-13 -24 -26 -47 l0 0 Z" /><glyph glyph-name="" unicode=":" d="M81 78 q-8 1 -14 -1 q-6 -2 -9 -5 q-4 -4 -7 -9 q-3 -5 -4 -10 q-7 -5 -6 -14 q1 -3 4 -6 q0 -1 0 -2 q0 -5 4 -8 q4 -4 9 -4 q0 0 0 0 q5 1 9 5 q4 4 3 9 q0 0 0 1 q19 5 27 12 q8 6 8 14 q-2 10 -10 14 q-9 4 -14 4 l0 0 ZM150 231 q-2 10 -10 14 q-9 4 -14 4 q-8 1 -14 -1 q-6 -2 -9 -5 q-4 -4 -7 -9 q-3 -5 -4 -10 q-4 -2 -5 -6 q-2 -4 -1 -8 q1 -4 4 -6 q0 -2 0 -2 q0 -5 4 -9 q3 -3 8 -3 q1 0 1 0 q5 0 9 4 q3 4 3 9 q0 1 0 1 q19 6 27 12 q8 6 8 15 l0 0 Z" /><glyph glyph-name="" unicode=";" d="M147 230 q-2 11 -10 15 q-9 4 -14 4 q-8 1 -14 -1 q-6 -2 -9 -5 q-4 -5 -7 -10 q-3 -5 -4 -10 q-4 -2 -5 -5 q-2 -4 -1 -9 q1 -3 4 -6 q0 0 0 -1 q0 -5 4 -9 q4 -3 9 -3 q0 0 0 0 q5 0 9 4 q4 4 3 9 q0 1 0 1 q19 6 27 12 q8 6 8 14 l0 0 ZM72 75 q-4 -1 -6 -4 q-2 -4 -1 -8 q4 -15 0 -32 q-3 -17 -13 -32 q-8 -13 -20 -21 q-11 -9 -24 -11 q-4 0 -6 -4 q-3 -3 -2 -7 q1 -4 4 -6 q2 -2 6 -2 q1 0 1 0 q17 3 32 13 q15 10 26 27 q12 18 16 39 q4 21 -1 41 q-2 4 -5 6 q-3 2 -7 1 l0 0 Z" /><glyph glyph-name="" unicode="&lt;" d="M91 169 q43 10 92 27 q48 17 94 39 q4 2 5 6 q1 3 0 7 q-2 4 -6 5 q-3 1 -7 0 q-61 -29 -122 -49 q-62 -19 -108 -25 q-4 0 -6 -3 q-3 -3 -3 -7 q0 -4 3 -6 q2 -3 6 -3 q16 -1 43 -9 q27 -7 57 -18 q40 -16 56 -25 q16 -10 17 -13 q0 -4 3 -6 q2 -3 6 -4 q1 0 1 0 q4 0 7 3 q2 2 3 6 q0 8 -6 15 q-15 15 -54 32 q-40 16 -81 28 l0 0 Z" /><glyph glyph-name="" unicode="=" d="M231 164 q-41 2 -94 3 q-54 0 -97 0 q-4 0 -7 -3 q-3 -3 -3 -7 q0 -4 3 -7 q3 -3 7 -3 q43 0 97 0 q53 -1 93 -2 q0 0 0 0 q5 0 7 3 q3 2 3 6 q0 4 -3 7 q-2 3 -6 3 l0 0 ZM242 199 q-41 1 -94 2 q-53 0 -97 0 q-4 0 -7 -3 q-3 -2 -3 -7 q0 -4 3 -7 q3 -3 7 -3 q43 0 97 0 q53 -1 93 -2 q0 0 1 0 q4 0 6 3 q3 2 3 6 q1 5 -2 7 q-3 3 -7 4 l0 0 Z" /><glyph glyph-name="" unicode="&gt;" d="M275 179 q-15 1 -42 9 q-27 8 -58 19 q-40 15 -56 25 q-16 9 -17 12 q0 4 -3 7 q-2 2 -6 3 q-4 0 -7 -3 q-3 -2 -4 -6 q0 -7 6 -15 q15 -15 55 -31 q40 -17 80 -29 q-43 -10 -91 -27 q-48 -17 -95 -39 q-4 -2 -5 -6 q-1 -3 1 -7 q1 -3 3 -4 q3 -2 5 -2 q1 0 3 1 q1 0 2 0 q61 29 122 49 q61 19 107 25 q4 0 6 3 q3 3 3 7 q0 4 -3 6 q-2 3 -6 3 l0 0 Z" /><glyph glyph-name="" unicode="?" d="M270 468 q-8 24 -27 36 q-18 12 -44 11 q-37 -3 -67 -23 q-31 -20 -38 -41 q-1 -4 1 -7 q2 -4 6 -5 q4 -1 7 1 q3 2 5 6 q5 14 30 31 q26 16 57 18 q19 1 32 -7 q13 -9 20 -27 q13 -47 -27 -106 q-40 -59 -87 -109 q-37 -41 -56 -69 q-19 -29 -7 -45 q2 -2 4 -3 q2 -1 4 -1 q3 0 6 3 q3 2 4 6 q0 4 -3 7 q-1 0 0 6 q1 5 12 21 q9 13 23 29 q13 16 28 33 q52 56 93 118 q40 62 24 117 l0 0 ZM71 35 q-8 1 -14 -1 q-6 -3 -9 -6 q-4 -4 -7 -9 q-3 -5 -4 -10 q-7 -5 -6 -14 q1 -3 4 -6 q0 -1 0 -2 q0 -5 4 -8 q3 -4 8 -4 q1 0 1 0 q5 1 9 5 q3 4 3 9 q0 0 0 1 q19 5 27 12 q8 6 8 14 q-2 11 -10 15 q-9 4 -14 4 l0 0 Z" /><glyph glyph-name="" unicode="@" d="M348 336 q-35 24 -76 26 q-41 2 -84 -18 q-29 -14 -56 -37 q-26 -23 -47 -52 q-23 -31 -36 -67 q-13 -35 -17 -73 q-4 -37 0 -69 q4 -32 17 -58 q11 -23 28 -40 q17 -18 39 -30 q22 -12 46 -17 q25 -6 48 -6 q29 0 53 7 q24 7 40 19 q3 2 3 6 q0 4 -2 8 q-2 3 -6 4 q-4 0 -8 -3 q-23 -18 -70 -21 q-47 -4 -95 20 q-32 15 -56 57 q-24 41 -18 121 q8 70 47 128 q39 57 98 85 q39 17 75 16 q36 -2 66 -22 q52 -38 56 -96 q5 -57 -16 -107 q-16 -41 -39 -64 q-23 -24 -43 -22 q-7 1 -12 6 q-5 4 -8 11 q-11 26 -4 70 q8 44 26 79 q1 1 1 3 q1 1 1 2 q2 4 1 8 q-1 3 -4 5 q-4 2 -8 1 q-4 -1 -6 -4 q0 -1 -1 -2 q0 -2 -1 -3 q-7 -15 -15 -28 q0 5 0 10 q-1 5 -3 10 q-3 7 -9 10 q-5 4 -13 4 q-38 -2 -67 -46 q-30 -44 -41 -92 q-6 -30 -1 -49 q5 -19 21 -25 q19 -8 41 20 q23 27 58 92 q-3 -21 -2 -40 q1 -20 8 -34 q12 -22 35 -27 q28 -4 56 23 q28 26 47 74 q24 56 17 120 q-6 64 -64 107 l0 0 ZM229 122 q2 -2 3 -2 q-23 -43 -41 -69 q-16 -23 -23 -28 q-8 -6 -9 -4 q-8 3 -10 17 q-2 14 2 35 q10 44 36 83 q25 38 51 40 q1 0 1 0 q3 0 4 -1 q1 -1 1 -2 q3 -10 -3 -28 q-6 -18 -13 -28 q-3 -3 -2 -7 q0 -4 3 -6 l0 0 Z" /><glyph glyph-name="" unicode="A" d="M555 249 q19 60 37 120 q57 176 83 283 q26 107 3 138 q-11 14 -29 12 q-63 -13 -148 -114 q-85 -101 -134 -174 q-48 -69 -91 -140 q-44 -71 -80 -137 q-32 -3 -62 -5 q-29 -2 -53 -3 q-32 -1 -45 0 q-14 1 -16 2 q-1 3 -3 5 q-2 2 -4 3 q-4 1 -7 -1 q-4 -2 -5 -6 q-1 -7 3 -13 q7 -10 48 -10 q41 0 133 7 q-24 -47 -43 -89 q-19 -43 -32 -78 q-1 -4 1 -7 q1 -3 5 -5 q5 -1 8 0 q3 2 5 6 q13 37 33 81 q20 44 46 94 q4 0 7 0 q65 6 134 10 q68 5 130 5 q14 0 27 -1 q12 0 23 -1 q-22 -71 -40 -138 q-18 -68 -30 -128 q-10 -50 -13 -90 q-3 -39 0 -69 q6 -71 48 -91 q1 -1 2 -1 q1 0 2 0 q6 0 9 6 q1 3 0 7 q-1 4 -5 6 q-61 30 -24 228 q12 61 31 129 q18 68 40 140 q44 -5 64 -12 q20 -8 25 -16 q3 -4 8 -4 q3 0 6 2 q3 2 4 6 q0 4 -2 7 q-10 14 -35 23 q-24 9 -64 13 l0 0 ZM479 252 q-61 0 -128 -4 q-67 -4 -132 -10 q35 64 76 132 q42 67 88 133 q90 128 160 202 q71 74 108 78 q5 0 8 -1 q2 -2 3 -4 q18 -22 -10 -138 q-14 -55 -34 -123 q-20 -67 -44 -142 q-19 -62 -39 -125 q-13 1 -26 1 q-14 1 -30 1 l0 0 Z" /><glyph glyph-name="" unicode="B" d="M628 756 q-26 33 -79 41 q-54 9 -130 -10 q-68 -17 -141 -51 q-72 -34 -136 -80 q-70 -51 -111 -102 q-40 -51 -48 -98 q-6 -48 13 -81 q20 -32 40 -51 q5 -5 8 -8 q2 -3 7 -3 q4 -1 7 2 q3 2 3 6 q0 4 -2 7 q-4 5 -9 10 q-19 18 -36 46 q-17 28 -12 69 q7 43 46 91 q39 48 105 96 q63 45 133 78 q71 34 138 50 q70 17 118 11 q48 -6 70 -35 q15 -23 9 -53 q-6 -31 -20 -57 q-27 -55 -82 -118 q-55 -64 -126 -122 q-36 -29 -71 -52 q-34 -23 -66 -40 q-13 -1 -27 -3 q3 8 6 16 q3 9 7 18 q34 89 70 172 q36 83 63 137 q2 4 1 8 q-1 3 -5 5 q-4 2 -7 1 q-4 -1 -6 -5 q-28 -55 -65 -140 q-36 -85 -71 -176 q-9 -21 -16 -41 q-19 -5 -35 -12 q-17 -7 -30 -15 q-2 -2 -3 -5 q-2 -3 -1 -6 q1 -3 4 -5 q2 -2 6 -2 q21 0 46 7 q-8 -21 -14 -41 q-32 -16 -59 -40 q-30 -27 -52 -61 q-22 -34 -32 -71 q-14 -51 -5 -94 q10 -42 40 -68 q19 -15 42 -22 q22 -8 48 -8 q15 0 31 3 q31 5 63 20 q32 15 64 38 q38 29 69 65 q30 36 50 75 q22 44 26 86 q3 41 -11 76 q-11 28 -35 48 q-23 20 -57 31 q-30 9 -63 11 q98 59 188 149 q90 90 133 173 q42 85 9 130 l0 0 ZM355 274 q60 -18 80 -68 q25 -71 -16 -148 q-41 -77 -111 -130 q-51 -39 -113 -53 q-61 -15 -111 22 q-26 21 -34 58 q-8 37 5 83 q10 38 39 78 q28 40 76 72 q0 -2 0 -3 q-1 -1 -1 -2 q-14 -46 -15 -64 q-1 -17 3 -22 q3 -6 11 -6 q5 0 7 3 q3 2 3 7 q0 5 -5 8 q-1 6 4 28 q5 22 18 65 q23 11 49 19 q26 8 55 12 q5 1 7 4 q3 3 2 7 q-1 4 -4 6 q-3 3 -7 2 q-25 -3 -48 -9 q-24 -7 -45 -16 q2 8 6 17 q3 9 6 19 q22 9 46 20 q23 2 47 0 q24 -2 46 -9 l0 0 Z" /><glyph glyph-name="" unicode="C" d="M532 184 q-4 2 -8 1 q-4 -1 -6 -4 q-12 -21 -44 -59 q-32 -39 -78 -82 q-38 -37 -91 -73 q-53 -37 -111 -50 q-33 -7 -63 -2 q-29 5 -54 22 q-59 42 -58 155 q2 113 64 269 q34 83 78 157 q44 74 92 130 q38 45 90 79 q51 35 106 28 q34 -6 47 -42 q14 -42 -1 -96 q-14 -54 -49 -96 q-2 -3 -2 -7 q0 -4 3 -7 q3 -2 7 -2 q5 0 7 3 q39 46 54 105 q14 59 -1 107 q-8 23 -24 36 q-15 14 -37 18 q-49 8 -103 -20 q-54 -29 -111 -93 q-50 -57 -95 -133 q-45 -75 -79 -160 q-29 -72 -46 -140 q-17 -68 -19 -126 q-2 -66 15 -112 q16 -46 51 -69 q20 -14 43 -21 q23 -7 48 -7 q20 0 41 4 q112 32 208 125 q95 93 129 148 q2 4 1 8 q-1 4 -4 6 l0 0 Z" /><glyph glyph-name="" unicode="D" d="M149 12 q3 0 6 2 q2 1 3 4 l196 602 q1 4 0 8 q-2 3 -6 5 q-4 1 -8 -1 q-3 -2 -5 -6 l-196 -602 q-1 -4 1 -7 q2 -3 6 -5 q2 0 3 0 l0 0 ZM637 737 q-51 48 -134 51 q-36 1 -77 -6 q-41 -8 -85 -25 q-61 -24 -120 -61 q-59 -38 -107 -84 q-51 -49 -80 -99 q-29 -50 -32 -95 q-2 -46 16 -75 q18 -30 34 -46 q3 -3 5 -6 q3 -3 7 -3 q4 -1 7 2 q3 2 4 6 q0 4 -3 8 q-3 3 -6 6 q-15 15 -31 41 q-15 26 -14 65 q4 42 31 88 q27 47 75 94 q47 45 104 81 q57 36 117 60 q89 33 160 29 q71 -4 115 -45 q49 -52 50 -119 q0 -67 -21 -125 q-30 -88 -95 -186 q-65 -98 -154 -189 q-87 -89 -169 -141 q-82 -53 -144 -61 q-31 -4 -54 6 q-22 10 -36 33 q-2 3 -6 4 q-4 1 -8 -1 q-3 -2 -4 -6 q-1 -4 1 -8 q31 -48 91 -48 q9 0 18 1 q65 8 150 62 q85 54 175 145 q90 92 156 192 q66 100 97 191 q29 87 21 153 q-9 67 -54 111 l0 0 Z" /><glyph glyph-name="" unicode="E" d="M522 183 q-3 2 -7 2 q-4 -1 -7 -4 q-91 -116 -204 -191 q-113 -74 -197 -74 q-50 3 -71 39 q-15 23 -17 52 q-2 30 9 67 q32 100 114 191 q83 91 162 131 q6 4 6 10 q-1 4 -3 6 q-3 2 -6 2 q-18 2 -40 10 q-22 9 -43 22 q-23 14 -36 30 q-13 16 -14 30 q1 38 66 101 q64 63 155 114 q53 29 92 38 q38 10 55 -3 q7 -4 10 -11 q4 -6 5 -14 q0 -36 -28 -79 q-28 -44 -46 -64 q-3 -3 -2 -7 q0 -4 3 -7 q3 -2 7 -2 q4 1 7 4 q29 35 55 78 q25 43 23 80 q-1 12 -7 21 q-5 10 -15 17 q-33 19 -82 3 q-50 -16 -86 -37 q-42 -23 -83 -53 q-41 -30 -75 -62 q-28 -26 -51 -58 q-23 -32 -23 -60 q4 -26 23 -46 q20 -19 37 -29 q15 -10 32 -18 q16 -7 32 -12 q-80 -47 -156 -136 q-76 -88 -107 -184 q-23 -82 10 -136 q29 -44 87 -47 q3 0 7 0 q42 0 93 20 q52 20 110 58 q58 39 112 88 q53 50 96 106 q2 4 2 8 q-1 4 -4 6 l0 0 Z" /><glyph glyph-name="" unicode="F" d="M493 856 q-4 2 -8 1 q-3 -1 -5 -5 q-50 -83 -133 -137 q-83 -54 -170 -95 q-80 -38 -139 -78 q-59 -40 -75 -94 q-8 -32 4 -69 q11 -38 42 -81 q2 -3 7 -4 q4 0 7 2 q3 2 4 6 q0 4 -2 8 q-57 78 -43 133 q14 49 70 86 q56 36 134 73 q70 34 139 75 q70 41 124 99 q-32 -79 -81 -204 q-50 -125 -104 -270 q-13 -1 -27 -3 q-21 -2 -43 -3 q-21 -2 -43 -4 q-5 -1 -7 -4 q-3 -2 -2 -7 q0 -4 3 -6 q2 -3 7 -3 q0 0 0 0 q45 3 87 8 q9 1 18 1 q-27 -72 -52 -144 q-112 -327 -121 -433 q-10 -106 18 -110 q2 -1 5 -1 q5 0 8 5 q2 3 1 7 q-1 4 -4 6 q-8 1 -12 35 q-4 34 17 133 q15 65 42 153 q27 88 65 198 q13 38 27 77 q13 38 27 76 q51 5 91 5 q40 0 60 -10 q4 -2 7 -1 q4 1 6 5 q2 3 1 7 q-1 4 -5 6 q-22 12 -62 12 q-39 1 -90 -3 q58 156 110 287 q52 131 82 204 q7 17 12 30 q5 12 8 19 q1 4 0 7 q-2 3 -5 5 l0 0 Z" /><glyph glyph-name="" unicode="G" d="M648 253 q-23 6 -59 6 q-37 -1 -80 -4 q0 1 0 1 q-5 2 -10 1 q-5 0 -11 -3 q-51 -3 -99 -3 q-48 0 -78 10 q-4 1 -7 0 q-3 -2 -5 -6 q-1 -4 0 -7 q2 -4 6 -5 q18 -7 42 -9 q24 -3 52 -3 q30 0 62 2 q-12 -12 -28 -31 q-16 -19 -36 -44 q-14 -16 -29 -36 q-61 -77 -147 -147 q-87 -70 -157 -38 q-39 24 -44 100 q-4 75 27 189 q26 93 69 186 q44 93 96 169 q59 84 117 129 q58 45 109 45 q32 0 49 -33 q21 -42 15 -103 q-6 -61 -36 -109 q-2 -3 -1 -7 q1 -5 4 -7 q4 -1 8 -1 q4 1 6 4 q16 24 26 55 q10 30 13 64 q3 34 -1 63 q-5 29 -16 51 q-11 20 -28 31 q-17 11 -39 11 q-59 0 -125 -52 q-58 -46 -117 -129 q-54 -78 -98 -172 q-44 -95 -70 -190 q-34 -122 -27 -202 q7 -80 53 -109 q24 -14 51 -14 q68 4 142 65 q74 62 136 139 q8 10 15 18 q7 9 14 18 q20 24 35 43 q16 19 28 31 q12 12 18 15 q4 0 7 0 q0 -5 -3 -22 q-3 -17 -13 -53 q-9 -33 -22 -74 q-14 -41 -29 -86 q-19 -58 -37 -115 q-19 -57 -32 -106 q-19 -74 -19 -102 q1 -27 10 -33 q1 -1 3 -2 q1 -1 3 -1 q4 0 7 3 q3 3 3 7 q0 4 -3 7 q-3 0 -3 23 q0 23 18 93 q13 49 31 105 q18 57 38 115 q36 108 52 165 q17 57 15 77 q39 3 72 3 q32 0 52 -5 q4 -1 7 1 q3 2 4 6 q1 4 0 8 q-2 3 -6 4 l0 0 Z" /><glyph glyph-name="" unicode="H" d="M665 886 q-3 2 -7 2 q-4 -1 -6 -5 q-56 -85 -119 -244 q-62 -159 -117 -331 q-39 -1 -81 -3 q-42 -2 -84 -4 q-37 -1 -73 -3 q15 44 28 86 q13 42 24 82 q28 105 29 167 q1 62 -24 86 q-30 29 -93 4 q-4 -2 -6 -5 q-1 -4 0 -8 q2 -4 5 -5 q4 -1 8 0 q52 20 73 0 q20 -20 17 -79 q-2 -59 -28 -155 q-11 -41 -24 -85 q-14 -44 -30 -89 q-49 -2 -90 -2 q-50 1 -71 5 q-22 5 -26 10 q-2 2 -6 2 q-4 0 -7 -2 q-3 -3 -3 -7 q0 -4 3 -7 q15 -15 64 -18 q50 -4 130 -1 q-17 -49 -35 -97 q-17 -48 -34 -95 q-9 -26 -18 -50 q-2 -1 -3 -3 q-1 -1 -1 -3 l-30 -87 q-1 -4 1 -8 q2 -3 6 -5 q2 0 3 0 q6 0 9 6 q11 34 24 69 q13 36 27 74 q18 48 36 99 q19 51 36 101 q36 1 80 4 q39 2 79 3 q40 2 78 3 q-6 -21 -12 -41 q-7 -21 -13 -41 q-31 -103 -55 -196 q-25 -93 -41 -169 q-24 -121 -23 -158 q2 -37 7 -38 q3 -4 8 -4 q3 0 6 1 q3 2 4 7 q1 4 -1 7 q-4 1 -4 37 q0 36 22 144 q16 75 41 168 q24 93 55 196 q6 21 13 43 q7 22 14 44 q50 1 89 -3 q38 -3 59 -12 q1 -1 4 -1 q2 0 5 1 q2 2 4 4 q1 4 0 8 q-1 3 -5 5 q-22 10 -61 14 q-39 4 -89 4 q54 170 116 326 q62 155 116 238 q2 4 2 8 q-1 4 -5 6 l0 0 Z" /><glyph glyph-name="" unicode="I" d="M417 794 q-4 1 -7 0 q-3 -1 -5 -5 q-49 -83 -121 -131 q-72 -49 -140 -80 q-58 -27 -100 -55 q-42 -29 -54 -71 q-8 -31 5 -70 q14 -39 50 -89 q2 -3 7 -4 q4 0 7 2 q3 2 4 6 q0 4 -2 7 q-33 46 -46 81 q-13 36 -6 63 q10 35 49 61 q38 26 94 52 q57 26 117 63 q60 37 111 95 q-16 -43 -39 -103 q-24 -59 -51 -128 q-40 -100 -81 -205 q-42 -105 -76 -198 q-50 -137 -62 -187 q-11 -49 -6 -56 q3 -6 9 -7 q1 0 4 1 q4 2 5 5 q2 3 1 7 q-1 1 0 16 q2 16 14 58 q9 29 22 68 q13 39 31 88 q34 93 76 198 q41 105 81 205 q43 108 74 189 q32 81 41 112 q1 4 -1 7 q-2 3 -5 5 l0 0 Z" /><glyph glyph-name="" unicode="J" d="M560 676 q-29 18 -77 12 q-49 -7 -113 -37 q-61 -30 -122 -73 q-60 -44 -110 -97 q-48 -50 -80 -103 q-33 -52 -47 -103 q-17 -61 -8 -117 q9 -55 43 -105 q2 -3 6 -4 q4 0 8 2 q3 2 4 6 q0 4 -2 7 q-74 125 -21 237 q53 112 111 167 q49 51 107 94 q59 43 119 71 q58 27 103 34 q45 7 69 -8 q47 -32 23 -163 q-23 -132 -112 -335 q-46 -105 -100 -206 q-54 -101 -109 -183 q-26 -40 -50 -71 q-25 -32 -45 -52 q-26 -27 -39 -33 q-14 -6 -18 -4 q-7 3 -13 19 q-6 16 -7 49 q-4 108 73 259 q76 152 261 249 q4 2 5 5 q1 4 -1 8 q-2 4 -5 5 q-4 1 -8 0 q-108 -55 -174 -126 q-65 -72 -97 -134 q-36 -66 -56 -136 q-19 -70 -18 -131 q1 -35 9 -57 q9 -22 24 -28 q0 -1 1 -1 q0 0 0 0 q5 -1 8 -1 q54 0 167 170 q55 82 109 184 q54 101 101 207 q42 95 70 178 q28 82 42 148 q16 79 8 129 q-8 49 -39 68 l0 0 Z" /><glyph glyph-name="" unicode="K" d="M844 888 q-83 -17 -221 -118 q-138 -102 -206 -159 q-90 -75 -170 -148 q-80 -73 -141 -137 q37 103 78 208 q40 106 83 214 q1 4 0 7 q-1 3 -5 5 q-5 1 -8 0 q-3 -1 -5 -5 q-47 -119 -92 -235 q-45 -116 -84 -229 q-23 -26 -42 -48 q-18 -22 -31 -40 q-1 -2 -1 -4 q-1 -2 0 -4 q2 -4 5 -6 q3 -2 10 -10 q7 -7 15 -17 q-45 -141 -77 -273 q-1 -8 6 -11 q1 -1 4 -1 q5 0 8 4 q2 3 7 14 q5 11 15 32 q6 13 12 26 q6 12 8 16 q3 3 2 7 q0 4 -4 6 q-3 3 -7 2 q-4 0 -6 -4 q-1 0 -1 -1 q-1 -1 -1 -2 q21 82 50 169 q60 -70 158 -155 q97 -84 191 -92 q16 0 31 4 q5 1 7 5 q1 3 0 7 q-1 4 -4 6 q-4 2 -8 1 q-37 -10 -87 10 q-49 19 -111 69 q-52 43 -97 88 q-44 45 -74 78 q20 56 39 114 q62 67 150 148 q87 82 189 166 q150 124 260 196 q110 72 157 77 q4 1 6 4 q3 3 3 7 q-1 4 -4 6 q-3 3 -7 3 l0 0 ZM36 184 q-9 11 -14 15 q7 10 16 21 q8 11 18 23 q-5 -15 -10 -30 q-5 -15 -10 -29 l0 0 Z" /><glyph glyph-name="" unicode="L" d="M457 -99 q-16 29 -61 44 q-44 16 -113 17 q-67 1 -144 -12 q-77 -13 -159 -39 q78 224 175 520 q97 295 107 327 q1 4 -1 8 q-1 3 -5 4 q-4 1 -8 0 q-3 -1 -5 -5 l-105 -274 q-1 -4 0 -8 q2 -3 6 -5 q3 -1 6 0 q-50 -151 -103 -311 q-54 -160 -92 -268 q-1 -2 0 -5 q0 -3 2 -5 q2 -2 5 -2 q3 -1 6 0 q85 28 165 42 q81 15 150 14 q61 -2 103 -15 q41 -14 54 -37 q1 -2 3 -4 q3 -1 5 -1 q1 0 3 1 q1 0 2 0 q4 2 5 6 q1 4 -1 8 l0 0 Z" /><glyph glyph-name="" unicode="M" d="M888 184 q-4 1 -8 0 q-3 -1 -5 -5 q-33 -74 -91 -145 q-57 -71 -110 -93 q-23 -9 -38 -1 q-20 11 -29 39 q-15 46 -3 132 q13 87 51 206 q25 76 58 158 q33 82 71 165 q31 57 50 95 q19 39 20 49 q1 3 -1 6 q-2 3 -5 4 q-4 1 -7 -1 q-3 -1 -5 -4 q-36 -68 -69 -140 q-30 -55 -69 -123 q-39 -68 -83 -141 q-47 -78 -89 -143 q-42 -64 -76 -112 q-53 -73 -75 -92 q-22 -20 -24 -17 q-7 2 -12 8 q-20 43 6 162 q26 118 60 235 q30 106 42 164 q13 58 3 74 q-5 6 -11 7 q-26 4 -59 -33 q-33 -37 -77 -121 q-37 -70 -76 -155 q-38 -85 -74 -167 q-42 -98 -80 -180 q-39 -82 -62 -111 q-2 8 2 33 q3 24 17 72 q15 49 36 109 q22 61 47 127 q31 81 59 161 q29 80 49 150 q24 83 27 133 q4 51 -12 73 q-15 20 -42 19 q-4 0 -6 -3 q-3 -2 -3 -7 q0 -4 3 -6 q3 -3 7 -3 q8 0 14 -2 q7 -3 11 -9 q13 -18 8 -66 q-4 -47 -26 -123 q-20 -70 -48 -150 q-28 -80 -59 -161 q-25 -66 -47 -127 q-22 -60 -37 -109 q-17 -59 -20 -91 q-2 -32 10 -43 q3 -2 7 -2 q1 0 3 0 q1 0 2 1 q23 15 61 94 q39 79 97 213 q36 82 74 167 q39 84 75 154 q49 90 76 118 q27 29 38 26 q0 0 0 0 q1 -2 0 -17 q0 -16 -9 -54 q-7 -30 -17 -69 q-11 -38 -22 -81 q-17 -60 -34 -123 q-16 -63 -28 -120 q-13 -67 -13 -108 q-1 -42 12 -61 q5 -8 11 -12 q6 -4 14 -5 q1 0 2 0 q0 0 0 0 q10 -2 36 20 q26 22 81 97 q34 48 76 113 q42 65 89 144 q32 51 62 104 q-33 -81 -57 -157 q-30 -90 -48 -187 q-19 -98 -1 -163 q12 -36 39 -50 q24 -12 54 -1 q62 27 121 103 q60 77 91 146 q1 4 0 8 q-1 3 -5 5 l0 0 Z" /><glyph glyph-name="" unicode="N" d="M694 184 q-4 1 -7 0 q-3 -1 -5 -5 q-17 -40 -46 -89 q-29 -50 -65 -94 q-29 -35 -67 -60 q-38 -26 -76 -13 q-36 14 -42 69 q-7 54 15 149 q21 87 56 183 q34 97 70 188 q48 121 69 188 q20 67 8 86 q-6 8 -17 8 q-22 0 -53 -23 q-30 -23 -69 -69 q-34 -39 -73 -95 q-39 -56 -84 -127 q-73 -118 -150 -260 q-78 -142 -144 -281 q3 15 7 39 q7 31 18 71 q11 41 27 93 q30 97 67 207 q36 109 69 206 q15 46 29 88 q15 41 26 75 q1 4 -1 7 q-2 3 -6 5 q-4 1 -7 0 q-3 -2 -5 -6 q-11 -34 -25 -75 q-14 -42 -30 -87 q-33 -98 -69 -207 q-37 -110 -67 -208 q-43 -145 -51 -196 q-7 -52 1 -58 q3 -5 9 -5 q0 0 0 0 q6 0 8 6 q68 145 150 297 q82 152 161 278 q44 71 83 126 q39 56 72 95 q44 51 70 69 q25 17 37 16 q0 0 0 0 q2 1 2 -14 q0 -16 -15 -65 q-11 -36 -28 -81 q-17 -45 -37 -96 q-81 -198 -129 -382 q-48 -184 40 -232 q16 -6 32 -6 q81 9 150 106 q69 96 98 166 q1 4 0 8 q-2 3 -6 5 l0 0 Z" /><glyph glyph-name="" unicode="O" d="M529 235 q-3 3 -7 4 q-4 0 -7 -2 q-37 -29 -72 -47 q-35 -19 -67 -29 q46 84 78 170 q32 85 44 158 q7 43 6 79 q-1 35 -10 63 q-19 63 -78 83 q-30 9 -66 9 q80 77 149 81 q5 1 7 4 q3 2 3 7 q-1 4 -4 6 q-3 3 -7 3 q-42 -3 -87 -29 q-44 -27 -90 -74 q-53 -5 -109 -28 q-57 -23 -110 -61 q-67 -49 -103 -106 q-37 -56 -37 -112 q0 -34 13 -71 q13 -36 36 -71 q20 -28 44 -52 q-17 -60 -25 -114 q-8 -54 -7 -97 q2 -56 21 -86 q22 -35 64 -35 q50 1 114 61 q29 28 59 66 q29 37 58 84 q12 18 24 38 q38 10 79 30 q41 20 85 54 q3 3 4 7 q0 4 -2 7 l0 0 ZM-18 414 q0 50 35 103 q34 53 97 99 q45 33 93 54 q48 21 94 29 q-34 -39 -67 -88 q-33 -50 -65 -110 q-34 -64 -61 -130 q-27 -66 -46 -129 q-37 38 -58 83 q-22 45 -22 89 l0 0 ZM323 109 q-60 -94 -117 -147 q-57 -53 -98 -54 q-61 0 -66 102 q-1 40 6 90 q8 49 24 105 q16 -14 34 -25 q17 -12 37 -21 q31 -17 81 -27 q49 -10 113 0 q-8 -12 -14 -23 l0 0 ZM350 154 q-66 -14 -116 -4 q-51 10 -83 26 q-20 10 -38 23 q-19 13 -35 28 q19 64 46 132 q27 67 62 133 q34 64 71 118 q36 53 74 93 q22 2 42 0 q20 -2 37 -8 q57 -22 69 -82 q11 -60 0 -121 q-12 -75 -46 -164 q-34 -88 -83 -174 l0 0 Z" /><glyph glyph-name="" unicode="P" d="M575 776 q-54 16 -112 11 q-59 -4 -118 -28 q-53 -21 -103 -56 q-51 -36 -95 -83 q-41 -45 -73 -94 q-32 -49 -51 -99 q-20 -54 -22 -102 q-3 -48 11 -88 q2 -4 5 -6 q3 -1 7 0 q4 2 6 5 q1 3 0 8 q-13 36 -10 81 q3 45 22 95 q18 48 48 96 q31 48 71 90 q75 81 183 131 q108 50 226 20 q103 -33 144 -135 q40 -103 3 -238 q-54 -165 -192 -262 q-139 -96 -277 -64 q-4 2 -7 2 l99 301 q13 0 25 -2 q5 -1 8 1 q3 2 4 7 q0 4 -2 7 q-2 3 -6 4 q-12 2 -22 2 l82 250 q1 4 0 8 q-2 3 -6 4 q-4 1 -7 0 q-4 -2 -5 -6 l-85 -256 q-29 -1 -55 -11 q-26 -10 -49 -28 q-26 -22 -45 -53 q-18 -30 -26 -66 q-7 -30 -5 -58 q2 -29 13 -53 q9 -21 24 -36 q14 -16 34 -26 l-94 -284 q-1 -4 0 -8 q2 -3 6 -5 q2 0 3 0 q3 0 6 2 q2 2 3 5 l94 283 q4 -1 7 -3 q35 -9 72 -9 q54 0 110 19 q56 19 110 56 q73 51 125 122 q52 70 77 151 q19 67 18 130 q-1 64 -21 118 q-22 57 -62 96 q-41 38 -96 54 l0 0 ZM170 218 q11 53 50 94 q38 41 100 48 l-97 -292 q-39 23 -51 65 q-12 41 -2 85 l0 0 Z" /><glyph glyph-name="" unicode="Q" d="M565 -225 q-75 47 -149 104 q-74 58 -142 122 q17 22 35 46 q18 24 35 52 q60 96 102 199 q42 103 56 191 q14 86 -3 142 q-21 63 -78 83 q-14 5 -28 6 q42 26 83 29 q4 0 6 3 q3 3 3 7 q0 5 -3 7 q-3 3 -7 2 q-56 -3 -113 -44 q-47 2 -100 -12 q-42 -11 -83 -31 q-42 -19 -78 -45 q-61 -45 -94 -97 q-33 -53 -33 -107 q0 -41 21 -94 q21 -53 62 -115 q-18 -60 -27 -113 q-8 -54 -7 -97 q1 -29 7 -51 q6 -22 16 -38 q23 -36 66 -36 q25 0 54 16 q28 15 60 45 q9 8 18 18 q9 9 17 19 q69 -64 143 -122 q75 -58 151 -106 q1 -1 3 -1 q1 0 2 0 q2 0 5 1 q2 1 4 3 q2 4 1 8 q-1 4 -5 6 l0 0 ZM-7 432 q0 49 32 97 q31 49 88 91 q53 38 111 59 q58 22 112 25 q-8 -7 -16 -14 q-8 -7 -16 -15 q-38 -38 -74 -89 q-37 -52 -71 -114 q-29 -55 -53 -112 q-24 -56 -42 -112 q-35 54 -53 101 q-18 47 -18 83 l0 0 ZM112 -92 q-32 0 -50 26 q-17 27 -19 80 q-1 39 6 87 q7 48 22 102 q35 -50 81 -103 q45 -51 95 -100 q-39 -44 -73 -68 q-35 -24 -62 -24 l0 0 ZM260 15 q-49 49 -93 97 q-51 60 -89 115 q17 58 42 118 q25 60 56 117 q45 84 94 145 q48 61 97 97 q26 -1 48 -9 q57 -22 68 -82 q11 -60 0 -121 q-14 -86 -55 -187 q-41 -101 -101 -196 q-17 -26 -33 -50 q-17 -24 -34 -44 l0 0 Z" /><glyph glyph-name="" unicode="R" d="M613 -18 q-72 -66 -158 -56 q-52 6 -108 40 q-57 34 -116 96 q-33 34 -61 68 q-28 35 -51 67 q14 -6 30 -11 q17 -4 36 -5 q47 -2 98 18 q51 20 104 62 q143 116 211 233 q69 117 70 197 q0 26 -7 45 q-6 19 -20 30 q-17 14 -40 18 q-23 4 -49 -3 q-87 -22 -204 -159 q-118 -137 -246 -392 q-3 2 -6 5 l180 522 q1 4 0 8 q-2 3 -6 4 q-4 2 -7 0 q-3 -1 -5 -6 l-177 -514 q-2 1 -5 0 q-2 0 -4 -2 q-3 -2 -4 -6 q0 -4 2 -7 q1 -3 4 -6 l-120 -348 q-1 -4 0 -8 q2 -3 6 -5 q2 0 3 0 q3 0 6 2 q2 1 3 4 q31 84 64 163 q32 78 67 150 q23 -33 52 -68 q28 -35 62 -70 q62 -64 121 -99 q59 -36 115 -43 q95 -11 174 61 q3 3 3 7 q0 4 -3 7 q-2 3 -7 3 q-4 0 -7 -2 l0 0 ZM75 173 l12 35 q2 -1 3 -4 q-7 -15 -15 -31 l0 0 ZM293 518 q72 103 140 166 q69 62 124 78 q44 12 72 -11 q10 -8 15 -24 q5 -15 4 -36 q0 -39 -18 -87 q-17 -49 -49 -101 q-37 -61 -89 -119 q-53 -57 -117 -107 q-84 -64 -149 -74 q-65 -9 -107 16 q42 86 86 161 q43 75 88 138 l0 0 Z" /><glyph glyph-name="" unicode="S" d="M494 409 q-2 -3 -1 -7 q0 -4 4 -6 q4 -2 8 -1 q3 1 5 4 q59 95 102 208 q43 112 35 165 q-2 7 -5 12 q-4 5 -9 8 q-31 15 -86 -2 q-56 -16 -108 -43 q-70 -34 -144 -82 q-73 -48 -138 -100 q-45 -36 -96 -89 q-51 -54 -62 -102 q-5 -58 54 -99 q58 -41 141 -78 q56 -26 108 -54 q51 -28 86 -63 q-25 -22 -48 -47 q-45 -49 -72 -95 q-27 -47 -31 -84 q-2 -26 7 -40 q8 -13 18 -19 q6 -4 13 -5 q7 -2 15 -2 q20 0 42 11 q22 11 45 33 q43 41 63 101 q20 60 -8 119 q-7 13 -16 25 q34 29 73 52 q39 23 80 37 q4 2 6 5 q2 3 1 8 q-2 4 -5 5 q-4 2 -8 1 q-41 -14 -81 -38 q-41 -23 -79 -55 q-37 37 -90 67 q-53 29 -110 56 q-78 35 -133 72 q-56 37 -52 84 q5 31 44 78 q39 46 107 101 q64 52 137 99 q73 47 142 81 q65 32 111 44 q46 11 65 1 q1 -1 2 -3 q1 -2 2 -5 q4 -18 -4 -57 q-8 -39 -28 -93 q-21 -54 -47 -108 q-26 -54 -55 -100 l0 0 ZM401 65 q4 -5 7 -11 q4 -6 7 -11 q24 -53 6 -106 q-19 -54 -58 -91 q-25 -24 -50 -33 q-25 -10 -41 -1 q-18 10 -15 40 q5 41 43 99 q38 58 101 114 l0 0 Z" /><glyph glyph-name="" unicode="T" d="M827 794 q-95 34 -213 31 q-118 -3 -240 -21 q8 15 14 29 q2 4 1 8 q-1 3 -5 5 q-4 2 -8 1 q-3 -1 -5 -5 q-5 -10 -10 -20 q-5 -10 -10 -21 q-28 -5 -57 -8 q-113 -18 -201 -24 q-88 -7 -133 15 q-4 2 -8 1 q-4 -1 -6 -5 q-1 -3 0 -7 q1 -4 4 -6 q20 -10 46 -15 q27 -4 60 -4 q50 0 111 8 q61 7 130 17 q23 4 45 7 q-59 -133 -116 -286 q-56 -153 -98 -284 q-27 -83 -48 -155 q-22 -72 -36 -129 q-22 -91 -22 -118 q1 -27 5 -28 q2 -3 5 -4 q3 -2 7 -2 q0 0 1 0 q4 0 6 3 q3 3 3 7 q-1 3 -2 6 q-2 2 -5 3 q-2 3 1 31 q3 28 21 101 q14 57 35 128 q21 72 48 155 q43 132 101 288 q57 155 117 287 q123 18 242 22 q120 4 214 -29 q4 -1 7 0 q3 1 5 5 q1 4 0 8 q-2 3 -6 5 l0 0 Z" /><glyph glyph-name="" unicode="U" d="M628 749 q-3 5 -11 5 q-6 2 -22 -14 q-17 -16 -56 -78 q-26 -42 -57 -96 q-32 -54 -67 -115 q-51 -88 -105 -180 q-54 -91 -106 -170 q-56 -86 -96 -132 q-39 -47 -62 -52 q-4 -1 -7 0 q-3 0 -4 1 q-24 18 -16 98 q9 80 47 209 q33 112 81 233 q47 121 96 222 q1 4 0 8 q-1 3 -5 5 q-3 2 -7 1 q-4 -1 -6 -5 q-49 -102 -96 -224 q-48 -122 -82 -234 q-38 -128 -47 -209 q-5 -49 1 -78 q6 -30 23 -42 q11 -7 26 -4 q55 17 154 167 q98 149 228 376 q34 59 65 112 q30 52 55 93 q23 36 37 55 q13 19 20 26 q-1 -7 -6 -21 q-5 -14 -14 -38 q-12 -30 -28 -68 q-16 -38 -36 -83 q-40 -92 -83 -197 q-42 -105 -75 -202 q-38 -116 -42 -181 q-4 -65 26 -83 q2 -1 3 -2 q1 0 2 0 q6 1 9 4 q2 4 1 8 q-1 4 -4 6 q-18 7 -18 60 q0 53 42 182 q32 96 74 201 q43 104 83 197 q56 130 75 180 q18 51 10 59 l0 0 Z" /><glyph glyph-name="" unicode="V" d="M801 847 q-23 9 -56 -6 q-63 -29 -157 -133 q-95 -104 -206 -265 q-92 -133 -165 -263 q-74 -131 -119 -240 q17 128 39 242 q21 114 42 210 q36 158 46 250 q9 93 -32 112 q-42 15 -94 -26 q-53 -41 -94 -105 q-46 -71 -56 -150 q-11 -79 46 -135 q3 -2 7 -2 q4 0 7 3 q3 3 3 7 q-1 4 -4 7 q-51 50 -39 122 q11 72 53 138 q42 64 88 99 q46 35 76 24 q30 -17 17 -110 q-12 -93 -43 -230 q-24 -111 -49 -246 q-25 -135 -41 -287 q-1 -4 1 -7 q2 -3 6 -4 q2 0 2 0 q4 0 6 2 q3 2 4 5 q38 113 119 264 q82 152 190 309 q108 157 202 260 q93 104 152 131 q27 12 42 6 q4 -2 7 0 q4 1 6 5 q1 4 0 7 q-2 4 -6 6 l0 0 Z" /><glyph glyph-name="" unicode="W" d="M688 753 q-19 28 -60 45 q-41 16 -113 -4 q-4 -2 -6 -5 q-2 -3 -1 -8 q2 -4 5 -6 q3 -1 8 0 q52 16 90 7 q38 -9 61 -41 q32 -44 36 -126 q4 -82 -19 -191 q-24 -104 -66 -204 q-42 -99 -95 -177 q-58 -84 -117 -121 q-58 -38 -111 -23 q-18 5 -33 19 q-15 13 -26 36 q-41 98 -22 258 q19 160 73 290 q1 3 0 7 q-1 3 -4 5 q-4 2 -7 1 q-4 -1 -6 -5 q-20 -35 -45 -81 q-25 -45 -52 -96 q-27 -51 -53 -100 q-26 -50 -49 -90 q-29 -50 -43 -69 q-14 -19 -18 -21 q-2 2 -1 18 q0 15 7 52 q7 31 18 72 q11 41 27 90 q33 100 75 206 q42 106 85 200 q1 4 0 8 q-1 3 -5 5 q-4 1 -8 0 q-3 -1 -5 -5 q-43 -93 -84 -198 q-42 -105 -74 -205 q-17 -48 -28 -90 q-12 -41 -19 -73 q-10 -48 -9 -67 q1 -20 5 -25 q6 -9 15 -9 q1 0 1 0 q6 -2 22 16 q16 17 53 81 q24 41 51 91 q27 51 55 103 q10 20 20 38 q10 19 19 37 q-13 -45 -22 -92 q-9 -47 -14 -94 q-9 -86 -2 -154 q6 -68 27 -112 q26 -54 71 -66 q17 -5 35 -5 q47 0 95 32 q60 41 119 125 q55 79 97 181 q43 101 67 207 q11 53 16 101 q5 49 4 90 q-2 46 -12 82 q-10 35 -28 60 l0 0 Z" /><glyph glyph-name="" unicode="X" d="M791 860 q-2 4 -6 5 q-4 1 -7 -1 q-157 -96 -301 -251 q-145 -155 -262 -326 q-10 108 1 219 q11 111 44 214 q1 4 0 8 q-2 3 -6 4 q-4 1 -7 0 q-3 -1 -5 -5 q-91 -198 -159 -420 q-68 -222 -101 -429 q-1 -4 1 -7 q2 -2 6 -4 q2 0 2 0 q3 0 6 2 q2 1 3 4 q33 77 85 169 q51 92 117 191 q0 -6 2 -11 q21 -122 66 -207 q46 -85 111 -120 q80 -42 174 -1 q101 44 208 180 q2 3 2 7 q0 4 -3 7 q-4 2 -8 2 q-4 -1 -6 -4 q-52 -66 -103 -110 q-50 -44 -98 -64 q-85 -37 -156 0 q-61 33 -105 114 q-43 81 -63 199 q-3 17 -5 33 q118 175 264 333 q146 158 306 256 q3 2 4 6 q1 4 -1 7 l0 0 ZM198 262 q-56 -84 -103 -163 q-46 -80 -81 -151 q31 162 81 332 q51 169 116 329 q-17 -87 -20 -175 q-3 -88 7 -172 l0 0 Z" /><glyph glyph-name="" unicode="Y" d="M499 689 q-44 -3 -82 -72 q-38 -70 -79 -170 q-48 -120 -104 -219 q-57 -99 -128 -104 q-4 0 -9 0 q-39 5 -59 53 q-15 36 -18 89 q-2 52 8 112 q11 63 35 119 q23 55 55 97 q2 4 2 8 q-1 4 -4 6 q-3 2 -7 2 q-4 -1 -7 -4 q-34 -44 -58 -102 q-24 -57 -35 -123 q-11 -63 -8 -117 q2 -55 19 -94 q12 -29 31 -46 q19 -17 44 -19 q3 -1 6 -1 q2 0 5 0 q80 6 140 109 q61 102 110 226 q36 89 72 157 q36 69 71 73 q6 1 14 -3 q8 -4 14 -19 q10 -26 8 -74 q-3 -49 -17 -118 q-14 -65 -36 -141 q-23 -76 -53 -158 q-31 -82 -65 -159 q-35 -78 -71 -144 q-38 -72 -75 -125 q-37 -54 -70 -84 q-53 -49 -89 -33 q-22 12 -21 61 q2 50 27 124 q21 62 52 119 q32 57 68 101 q30 37 71 66 q42 28 89 20 q4 -1 7 1 q3 2 5 6 q1 4 -2 8 q-2 3 -6 4 q-42 9 -88 -14 q-45 -24 -91 -78 q-37 -45 -69 -104 q-33 -60 -55 -123 q-28 -84 -27 -139 q1 -54 32 -70 q14 -6 27 -6 q38 0 84 43 q79 79 155 226 q76 147 130 294 q31 82 54 159 q22 76 36 142 q30 146 8 203 q-9 21 -21 28 q-13 8 -25 7 l0 0 Z" /><glyph glyph-name="" unicode="Z" d="M518 184 q-48 19 -98 25 q-17 82 -88 123 q-72 40 -161 41 q70 43 126 87 q56 43 94 86 q41 45 56 82 q15 37 3 62 q-23 40 -90 46 q-68 5 -140 -12 q-75 -17 -138 -56 q-63 -40 -66 -100 q0 -5 3 -7 q2 -3 6 -3 q0 0 0 0 q5 0 7 3 q3 3 3 7 q2 49 59 84 q56 36 130 53 q78 18 136 11 q58 -7 73 -35 q8 -18 -7 -50 q-15 -32 -50 -72 q-28 -33 -88 -81 q-60 -49 -161 -108 q-3 -2 -4 -5 q-1 -3 0 -7 q1 -3 4 -5 q3 -2 6 -1 q91 8 169 -26 q77 -35 98 -115 q-168 10 -309 -66 q-141 -76 -204 -181 q-32 -54 -30 -100 q2 -45 37 -76 q17 -14 41 -22 q24 -7 55 -7 q17 0 36 2 q41 5 85 21 q44 15 86 38 q40 21 86 59 q47 38 86 96 q66 101 54 214 q23 -4 45 -9 q22 -6 43 -14 q4 -1 8 0 q3 2 5 6 q1 4 0 8 q-2 3 -6 4 l0 0 ZM188 -163 q-41 -23 -83 -37 q-43 -14 -82 -19 q-38 -5 -68 1 q-30 5 -48 21 q-38 36 -30 79 q8 43 27 72 q36 59 100 110 q64 52 144 86 q52 22 104 33 q53 11 104 11 q24 0 47 -3 q8 -152 -77 -241 q-85 -89 -138 -113 l0 0 Z" /><glyph glyph-name="" unicode="[" d="M265 456 q5 0 7 3 q3 2 4 6 q0 5 -3 7 q-2 3 -6 4 l-52 3 q-3 0 -6 -2 q-2 -1 -3 -5 l-205 -632 q-2 -3 1 -8 q1 -2 3 -3 q2 -1 4 -1 q14 -1 32 -2 q18 0 32 0 q4 0 7 3 q3 2 3 6 q0 5 -3 7 q-3 3 -7 3 q-10 0 -24 0 q-14 0 -26 1 l199 613 l43 -3 Z" /><glyph glyph-name="" unicode="\" d="M228 -71 q3 0 4 1 q4 2 5 5 q1 3 0 7 q-59 137 -125 265 q-66 128 -92 170 q-2 3 -6 4 q-4 1 -8 -1 q-3 -2 -4 -6 q-1 -4 1 -8 q27 -41 93 -169 q66 -128 123 -262 q3 -6 9 -6 l0 0 Z" /><glyph glyph-name="" unicode="]" d="M237 477 q-14 1 -32 2 q-18 0 -32 0 q-4 0 -7 -3 q-3 -2 -3 -7 q0 -4 3 -6 q3 -3 7 -3 q10 0 24 0 q14 0 26 -1 l-199 -613 l-43 2 q-5 1 -7 -2 q-3 -2 -4 -7 q0 -4 3 -7 q2 -3 6 -3 l52 -3 q0 0 0 0 q3 0 6 2 q2 1 3 4 l205 632 q2 5 -1 9 q-1 2 -3 3 q-2 1 -4 1 l0 0 Z" /><glyph glyph-name="" unicode="^" d="M195 397 q8 -8 18 -8 q2 0 5 1 q4 1 6 4 q2 3 1 7 q-1 4 -4 6 q-3 3 -7 2 q-1 -1 -2 0 q-2 0 -3 2 q-8 6 -11 42 q-2 35 13 107 q1 3 -1 6 q-1 3 -4 5 q-3 2 -6 1 q-4 -1 -6 -4 l-130 -160 q-3 -3 -2 -7 q0 -4 3 -7 q3 -2 7 -2 q4 0 7 4 l105 129 q-8 -48 -5 -81 q3 -33 16 -47 l0 0 Z" /><glyph glyph-name="" unicode="_" d="M242 -45 q-46 2 -135 3 q-89 0 -137 0 q-4 0 -7 -3 q-3 -3 -3 -7 q0 -5 3 -7 q3 -3 7 -3 q48 0 137 0 q89 -1 134 -2 q0 0 0 0 q5 0 7 3 q3 2 3 6 q0 4 -3 7 q-2 3 -6 3 l0 0 Z" /><glyph glyph-name="" unicode="`" d="M20 530 q-2 4 -6 5 q-4 0 -8 -2 q-3 -2 -4 -5 q-1 -4 1 -8 l53 -83 q3 -4 8 -4 q3 0 6 1 q3 2 4 6 q1 4 -1 8 l-53 82 Z" /><glyph glyph-name="" unicode="a" d="M373 183 q-3 2 -7 2 q-4 -1 -6 -4 q-7 -8 -15 -19 q-32 -45 -81 -94 q-49 -50 -98 -47 q-22 4 -33 26 q-12 33 -1 80 q10 46 28 74 q4 8 -2 14 q-3 2 -7 2 q-4 -1 -6 -3 q-15 -17 -31 -38 q0 11 -4 19 q-3 7 -7 11 q-9 10 -22 13 q-14 2 -29 -3 q-25 -8 -47 -26 q-22 -19 -39 -48 q-14 -24 -23 -49 q-8 -26 -8 -47 q1 -23 9 -33 q8 -9 15 -11 q5 -2 11 -2 q29 2 63 39 q33 37 69 88 q8 11 15 20 q-8 -28 -9 -56 q-2 -29 7 -52 q7 -16 19 -25 q12 -10 29 -12 q58 -5 111 48 q53 53 86 100 q9 11 15 19 q2 3 2 7 q0 4 -4 7 l0 0 ZM91 145 q-2 -3 -5 -6 q-31 -44 -65 -83 q-34 -39 -56 -35 q-7 3 -8 11 q-2 9 -2 14 q-1 19 7 42 q7 23 21 44 q15 25 35 42 q19 17 40 24 q6 2 12 2 q6 0 11 -2 q5 -2 8 -5 q10 -12 1 -38 q-1 -2 -1 -5 q0 -3 2 -5 l0 0 Z" /><glyph glyph-name="" unicode="b" d="M318 185 q-29 -1 -54 -6 q-25 -4 -47 -12 q8 32 2 53 q-5 21 -24 31 q0 0 -1 0 q-26 10 -57 -7 q-32 -16 -67 -58 q-24 -30 -47 -66 q-22 -37 -40 -76 q2 17 13 58 q11 40 35 112 q24 70 56 154 q31 83 67 169 q1 4 0 7 q-1 3 -5 5 q-4 2 -8 1 q-3 -2 -5 -6 q-36 -86 -68 -170 q-32 -84 -56 -154 q-14 -41 -24 -75 q-10 -34 -17 -59 q-9 -40 -8 -56 q0 -16 4 -20 q2 -4 6 -6 q3 -2 7 -2 q3 0 6 2 q2 2 3 5 q18 45 43 88 q25 42 53 76 q30 36 57 51 q26 16 45 9 q15 -8 15 -29 q1 -21 -8 -46 q-21 -8 -38 -18 q-16 -10 -29 -19 q-39 -28 -61 -56 q-22 -28 -29 -49 q-6 -17 -4 -27 q2 -10 8 -14 q0 -1 1 -1 q0 0 1 -1 q7 -3 14 -3 q35 3 75 49 q40 46 65 97 q8 15 12 27 q24 10 52 16 q27 5 57 6 q5 0 7 3 q3 3 3 7 q-1 5 -3 7 q-3 3 -7 3 l0 0 ZM180 125 q-14 -28 -32 -55 q-18 -26 -38 -46 q-18 -18 -33 -27 q-15 -9 -24 -7 q-1 2 0 7 q0 5 3 13 q9 27 42 61 q32 34 85 61 q-1 -4 -3 -7 l0 0 Z" /><glyph glyph-name="" unicode="c" d="M278 183 q-3 2 -7 2 q-5 -1 -7 -4 q-13 -19 -45 -55 q-32 -37 -75 -74 q-41 -35 -76 -49 q-34 -15 -59 -9 q-29 8 -35 31 q-7 23 -2 47 q5 28 19 57 q14 30 34 54 q21 26 42 38 q21 13 40 11 q15 -2 20 -14 q4 -9 3 -18 q-1 -9 -4 -14 q-2 -3 -2 -7 q1 -4 4 -6 q4 -2 8 -2 q4 1 6 4 q6 9 8 23 q1 14 -5 28 q-5 11 -14 18 q-9 6 -22 7 q-24 3 -50 -11 q-25 -15 -50 -44 q-21 -27 -36 -58 q-15 -32 -20 -62 q-7 -42 6 -68 q13 -26 45 -33 q10 -3 19 -3 q81 9 157 86 q76 76 100 111 q2 3 2 7 q-1 5 -4 7 l0 0 Z" /><glyph glyph-name="" unicode="d" d="M324 550 q-3 1 -6 0 q-4 -1 -6 -4 q-7 -10 -24 -48 q-16 -38 -39 -95 q-21 -44 -46 -92 q-25 -48 -51 -94 q-9 -16 -18 -31 q-4 23 -21 35 q-11 8 -24 10 q-13 2 -27 -3 q-55 -21 -84 -77 q-30 -55 -30 -104 q0 -25 9 -41 q8 -17 24 -22 q16 -5 37 10 q20 15 48 52 q45 57 103 161 q3 6 7 13 q3 6 7 12 q-7 -20 -15 -40 q-7 -21 -15 -41 q-28 -78 -49 -144 q-21 -67 -35 -118 q-22 -83 -24 -116 q-1 -32 5 -40 q6 -11 18 -11 q4 0 6 3 q3 3 3 7 q0 4 -3 7 q-2 3 -6 3 q0 0 0 0 q-3 -2 -4 22 q0 23 20 104 q13 50 34 117 q21 66 49 146 q26 73 51 140 q26 67 48 122 q22 45 38 83 q17 37 25 61 q1 4 0 7 q-1 4 -5 6 l0 0 ZM-13 3 q-13 5 -16 20 q-3 15 -3 24 q0 44 27 95 q26 50 73 67 q8 3 14 3 q12 0 19 -6 q8 -6 12 -17 q4 -11 4 -25 q0 -3 1 -5 q-71 -115 -100 -139 q-29 -23 -31 -17 l0 0 Z" /><glyph glyph-name="" unicode="e" d="M243 183 q-3 2 -7 2 q-4 -1 -6 -4 q-11 -14 -40 -46 q-28 -32 -65 -64 q-37 -31 -68 -43 q-32 -13 -57 -7 q-26 8 -30 28 q-5 20 -1 37 q2 11 5 21 q2 -1 3 -2 q2 -1 3 -1 q26 -6 56 9 q29 15 50 39 q13 15 18 28 q5 12 1 22 q-2 5 -8 10 q-6 5 -19 7 q-20 2 -42 -8 q-21 -10 -41 -32 q-17 -19 -29 -43 q-12 -23 -17 -47 q-6 -34 6 -57 q12 -22 40 -30 q5 -1 11 -1 q6 -1 11 -1 q26 0 57 14 q30 14 64 42 q38 32 67 65 q29 33 40 48 q2 3 2 7 q0 4 -4 7 l0 0 ZM76 200 q2 0 6 -1 q3 -2 5 -4 q1 -3 -3 -11 q-3 -8 -12 -19 q-18 -20 -43 -33 q-25 -13 -44 -9 l-3 0 q0 0 -1 0 q16 33 42 56 q25 23 53 21 l0 0 Z" /><glyph glyph-name="" unicode="f" d="M195 183 q-3 3 -7 2 q-4 -1 -6 -4 q-19 -28 -90 -99 q-71 -72 -150 -133 q3 9 6 17 q21 69 46 140 q24 70 48 136 q2 -3 5 -3 q4 -1 8 1 q3 1 4 6 q11 39 29 94 q17 56 19 62 q1 4 0 7 q-1 3 -5 5 q-4 1 -8 0 q-3 -1 -5 -5 q-36 -79 -79 -198 q-44 -119 -81 -239 q-6 -20 -12 -41 q-13 -8 -26 -15 q-12 -7 -23 -12 q-3 -2 -5 -5 q-1 -3 0 -7 q1 -3 4 -5 q2 -2 6 -2 q17 2 30 -1 q-26 -90 -40 -166 q-13 -77 -1 -109 q2 -6 7 -10 q4 -4 9 -6 q3 -1 7 -1 q7 0 16 5 q8 4 19 16 q34 43 53 117 q18 75 -7 130 q-5 11 -15 21 q-9 10 -24 16 q3 10 6 22 q85 60 164 140 q79 79 101 111 q2 3 2 7 q-1 4 -5 6 l0 0 ZM-51 -149 q21 -48 4 -117 q-17 -70 -48 -108 q-8 -9 -13 -12 q-6 -3 -8 -2 q-2 0 -3 2 q-1 1 -2 3 q-9 22 2 89 q11 67 41 172 q17 -7 27 -27 l0 0 Z" /><glyph glyph-name="" unicode="g" d="M362 182 q-3 3 -7 3 q-4 0 -7 -3 q-34 -33 -68 -73 q-35 -40 -69 -86 q13 54 18 102 q5 47 -3 78 q-6 19 -16 27 q-9 8 -18 9 q-19 3 -36 -8 q-17 -11 -33 -31 q-5 6 -11 10 q-12 9 -27 11 q-15 2 -32 -3 q-49 -17 -76 -63 q-27 -47 -27 -94 q1 -23 10 -39 q8 -15 24 -19 q26 -6 50 25 q24 31 51 78 q8 13 16 26 q8 14 16 26 q0 0 0 -2 q-1 -4 2 -6 q3 -3 7 -4 q5 0 7 3 q3 3 3 7 q0 13 -3 25 q14 19 28 30 q14 11 27 8 q14 -3 19 -21 q4 -17 4 -36 q1 -35 -8 -82 q-8 -46 -23 -100 q-34 -47 -66 -99 q-31 -51 -60 -105 q-57 -105 -87 -185 q-29 -81 -24 -114 q2 -9 6 -13 q4 -5 8 -6 q3 -1 6 -1 q9 0 19 9 q32 32 78 132 q46 99 86 210 q10 29 24 72 q14 43 28 92 q41 57 82 107 q41 49 82 89 q3 3 3 7 q0 4 -3 7 l0 0 ZM68 116 q-21 -37 -42 -67 q-22 -29 -37 -27 q-12 4 -16 17 q-3 13 -3 22 q-1 37 22 80 q22 42 67 59 q4 1 8 2 q4 0 8 0 q7 0 14 -2 q6 -2 11 -6 q3 -2 6 -4 q2 -3 4 -6 q-10 -16 -21 -33 q-10 -18 -21 -35 l0 0 ZM104 -248 q-21 -56 -43 -106 q-22 -49 -42 -88 q-27 -49 -40 -65 q-13 -16 -15 -16 q-1 1 -1 2 q0 1 -1 2 q-5 24 22 100 q27 75 87 186 q43 80 91 153 q-13 -43 -28 -86 q-15 -43 -30 -82 l0 0 Z" /><glyph glyph-name="" unicode="h" d="M424 183 q-3 2 -7 2 q-5 -1 -7 -4 q-60 -83 -93 -109 q-32 -25 -46 -19 q-17 5 -25 33 q-8 28 -13 59 q-5 30 -11 50 q-7 20 -22 22 q-38 5 -122 -93 q-30 -35 -60 -77 q-31 -42 -57 -83 q1 10 4 27 q4 18 11 46 q10 37 25 85 q14 48 34 104 q39 112 81 220 q42 108 76 181 q2 3 1 7 q-1 4 -5 6 q-4 1 -8 0 q-3 -1 -5 -5 q-35 -74 -78 -182 q-42 -108 -81 -221 q-20 -56 -34 -105 q-15 -48 -25 -85 q-14 -56 -15 -78 q-1 -22 3 -27 q3 -8 11 -8 q1 0 1 0 q6 0 9 4 q26 45 60 92 q33 47 67 86 q43 49 69 69 q26 19 36 18 q0 0 2 -2 q2 -3 6 -13 q2 -8 4 -19 q2 -11 4 -22 q5 -37 16 -69 q11 -31 37 -39 q5 -1 9 -1 q26 0 63 34 q37 33 87 102 q2 4 2 8 q-1 4 -4 6 l0 0 Z" /><glyph glyph-name="" unicode="i" d="M235 183 q-3 2 -7 2 q-4 -1 -7 -4 q-6 -8 -15 -19 q-30 -42 -76 -90 q-46 -48 -93 -52 q-4 0 -9 1 q-22 3 -30 23 q-12 34 2 83 q13 48 31 74 q2 4 2 8 q-1 4 -5 6 q-3 2 -7 2 q-4 -1 -6 -5 q-20 -30 -35 -83 q-14 -53 0 -93 q12 -29 45 -34 q6 -1 12 -1 q54 4 104 55 q49 50 81 94 q4 5 7 10 q4 5 7 9 q3 3 3 7 q-1 4 -4 7 l0 0 ZM28 264 q0 -3 0 -4 q0 -4 3 -6 q3 -3 7 -3 q0 0 0 0 q5 0 7 3 q3 2 2 7 q0 1 0 1 q20 8 29 14 q8 6 7 13 q-1 8 -9 11 q-7 3 -13 4 q-7 1 -13 -1 q-5 -2 -8 -5 q-5 -5 -8 -11 q-2 -7 -3 -13 q-2 -2 -2 -4 q0 -3 1 -5 q0 0 0 -1 l0 0 Z" /><glyph glyph-name="" unicode="j" d="M16 264 q0 -3 0 -4 q1 -4 4 -6 q2 -3 6 -3 q1 0 1 0 q4 0 6 3 q3 2 3 7 q0 1 0 1 q20 8 28 14 q8 6 7 13 q-1 8 -8 11 q-7 3 -13 4 q-8 1 -14 -1 q-5 -2 -8 -5 q-5 -5 -8 -11 q-2 -7 -3 -13 q-1 -2 -2 -4 q0 -3 1 -5 q0 0 0 -1 l0 0 ZM184 181 q-3 4 -7 4 q-4 0 -7 -3 q-78 -71 -148 -171 q-70 -100 -110 -170 q7 27 16 52 q27 90 54 173 q26 83 47 137 q1 4 0 8 q-2 3 -6 5 q-4 1 -8 0 q-3 -2 -5 -6 q-21 -55 -47 -138 q-27 -83 -54 -173 q-11 -35 -21 -69 q-11 -35 -22 -69 q-43 -79 -71 -144 q-28 -66 -26 -89 q1 -6 4 -9 q3 -2 5 -3 q1 -1 3 -1 q1 0 2 0 q3 0 6 1 q6 1 19 25 q13 24 40 103 q18 50 36 110 q14 26 29 51 q71 123 141 217 q70 94 129 146 q3 2 4 6 q0 4 -3 7 l0 0 ZM-209 -450 q2 10 9 27 q6 18 19 45 q3 9 7 17 q-13 -36 -21 -58 q-9 -21 -14 -31 l0 0 Z" /><glyph glyph-name="" unicode="k" d="M338 183 q-3 2 -7 2 q-5 -1 -7 -4 q-79 -107 -124 -138 q-45 -31 -66 -23 q-23 8 -34 36 q-11 28 -14 55 q37 8 79 50 q41 42 60 76 q4 6 8 19 q5 12 -4 21 q-8 8 -19 6 q-30 -5 -83 -66 q-53 -60 -123 -153 q-12 -16 -24 -31 q1 19 17 73 q15 55 52 157 q35 96 75 191 q40 94 72 161 q1 3 0 7 q-1 4 -5 6 q-4 1 -7 0 q-4 -1 -6 -5 q-33 -67 -73 -163 q-40 -96 -76 -193 q-59 -165 -65 -211 q-6 -47 0 -46 q4 -8 13 -8 q2 0 4 1 q2 1 3 3 q8 11 17 22 q9 12 18 24 q23 30 47 61 q4 -37 18 -69 q15 -33 45 -43 q7 -1 16 -1 q36 0 85 42 q49 42 110 127 q2 4 2 8 q-1 4 -4 6 l0 0 ZM80 131 q26 33 51 62 q36 41 55 56 q19 14 26 14 q1 1 2 0 q0 0 1 0 q-1 -10 -22 -39 q-21 -30 -56 -61 q-22 -18 -36 -26 q-14 -7 -21 -6 l0 0 Z" /><glyph glyph-name="" unicode="l" d="M245 183 q-4 2 -8 1 q-3 -1 -5 -5 q-24 -48 -82 -108 q-57 -61 -109 -51 q-22 8 -30 39 q-7 32 0 81 q1 7 2 14 q1 7 3 14 q0 0 0 0 q21 25 58 85 q37 60 77 134 q29 53 60 119 q31 65 31 94 q-1 8 -6 12 q-2 3 -7 4 q-6 1 -14 -2 q-26 -12 -60 -65 q-34 -53 -64 -115 q-38 -80 -64 -156 q-26 -76 -35 -135 q-9 -57 2 -94 q12 -37 41 -47 q10 -4 22 -4 q24 0 52 16 q27 15 57 45 q30 31 52 62 q22 31 31 49 q2 4 1 8 q-1 3 -5 5 l0 0 ZM216 593 q4 3 7 4 q1 -9 -17 -54 q-18 -46 -69 -141 q-29 -53 -57 -101 q-29 -48 -51 -82 q36 122 93 233 q57 111 94 141 l0 0 Z" /><glyph glyph-name="" unicode="m" d="M550 183 q-4 2 -8 2 q-4 -1 -6 -4 q-100 -132 -145 -128 q-15 2 -26 18 q-11 16 -20 37 q-11 23 -24 42 q-13 18 -35 23 q-36 3 -68 -26 q-33 -28 -60 -62 q-7 -9 -14 -17 q-7 -8 -13 -13 q2 12 5 30 q4 18 8 34 q12 51 16 83 q4 31 -5 44 q-4 6 -12 8 q-28 1 -58 -43 q-30 -45 -66 -114 q-10 -18 -20 -36 q-10 -19 -20 -37 q-2 2 -2 3 q-7 18 6 58 q14 40 30 79 q5 14 10 26 q5 12 10 23 q2 10 -6 13 q-4 1 -8 0 q-3 -2 -5 -6 q-4 -11 -9 -23 q-5 -12 -10 -25 q-20 -48 -33 -89 q-13 -42 -2 -66 q6 -12 21 -15 q1 0 2 0 q2 0 5 1 q2 2 3 4 q12 20 23 40 q12 21 22 41 q16 31 32 58 q15 28 29 49 q17 24 27 32 q10 8 15 7 q1 -1 2 -9 q1 -8 -2 -29 q-2 -16 -6 -34 q-4 -19 -8 -38 q-11 -46 -13 -67 q-2 -21 7 -26 q3 -2 8 -2 q4 0 10 5 q8 6 17 16 q9 10 19 22 q24 30 53 57 q29 26 57 24 q15 -3 25 -18 q10 -15 19 -36 q11 -24 25 -43 q14 -19 37 -23 q3 0 5 0 q28 0 67 33 q38 33 90 103 q3 3 3 7 q-1 5 -4 7 l0 0 Z" /><glyph glyph-name="" unicode="n" d="M426 182 q-3 3 -7 3 q-4 0 -7 -3 q-79 -87 -121 -112 q-43 -24 -60 -16 q-22 9 -30 38 q-8 30 -10 57 q-2 17 -4 26 q-3 9 -8 13 q-13 8 -36 -1 q-22 -10 -57 -40 q-24 -21 -49 -46 q-26 -26 -50 -51 q-1 7 0 20 q1 12 5 30 q7 27 18 56 q10 28 24 53 q2 4 1 8 q-1 4 -5 6 q-4 1 -8 0 q-3 -1 -5 -4 q-14 -27 -26 -56 q-11 -30 -18 -59 q-5 -22 -6 -45 q-1 -22 10 -34 q3 -3 6 -3 q1 0 1 0 q4 0 7 3 q26 28 54 56 q27 28 54 51 q35 30 51 36 q15 6 17 4 q1 -3 2 -11 q1 -7 2 -14 q3 -31 14 -66 q10 -34 41 -46 q7 -2 16 -2 q32 0 78 34 q46 34 107 102 q2 3 2 7 q0 4 -3 6 l0 0 Z" /><glyph glyph-name="" unicode="o" d="M311 181 q-2 3 -6 4 q-4 0 -8 -2 q-29 -20 -82 -27 q-54 -6 -96 1 q-2 17 -7 29 q-6 12 -16 15 q-3 2 -11 1 q-7 -2 -16 -14 q0 0 0 -1 q-5 -9 -3 -18 q2 -9 10 -16 q9 -7 24 -12 q0 -5 -1 -11 q-4 -30 -19 -57 q-16 -27 -37 -42 q-6 -5 -15 -8 q-9 -4 -20 -2 q-14 4 -19 25 q-5 21 -1 54 q7 44 31 77 q23 34 57 32 q4 -1 7 2 q3 2 4 6 q1 5 -2 7 q-2 3 -7 4 q-43 3 -72 -35 q-28 -38 -37 -90 q-7 -42 3 -69 q9 -27 32 -32 q3 -1 6 -1 q2 0 5 0 q20 0 39 14 q24 17 42 48 q17 30 23 64 q0 2 0 5 q0 3 1 5 q47 -7 103 1 q55 8 86 29 q4 3 4 7 q0 4 -2 7 l0 0 ZM89 168 q-6 4 -3 10 q2 2 3 3 q1 1 1 2 q2 -1 5 -7 q2 -5 4 -14 q-6 3 -10 6 l0 0 Z" /><glyph glyph-name="" unicode="p" d="M288 183 q-4 2 -8 2 q-4 -1 -6 -5 q-72 -105 -118 -137 q-45 -32 -68 -25 q-16 3 -27 14 q-10 11 -15 21 q23 1 44 13 q22 12 40 35 q27 35 35 76 q8 40 -6 72 q-5 10 -11 13 q-6 2 -11 2 q-7 0 -19 -10 q-13 -10 -34 -43 q-29 -46 -64 -129 q-31 -71 -63 -158 q-31 -87 -61 -181 q5 28 15 70 q9 42 24 99 q26 98 53 181 q28 84 50 132 q2 4 1 7 q-2 4 -6 6 q-3 1 -7 0 q-3 -1 -5 -5 q-23 -49 -51 -133 q-27 -84 -54 -182 q-15 -55 -32 -137 q-17 -82 -10 -110 q2 -4 4 -6 q2 -2 4 -3 q2 0 3 0 q1 0 3 0 q1 0 2 1 q3 2 5 6 q30 103 64 200 q34 98 68 179 q5 -14 19 -29 q14 -16 38 -21 q41 -7 93 36 q51 43 113 135 q2 4 2 8 q-1 4 -4 6 l0 0 ZM41 81 q53 117 76 143 q23 25 22 20 q0 0 1 0 q0 -1 1 -3 q12 -27 5 -62 q-8 -36 -32 -66 q-17 -22 -37 -32 q-20 -10 -40 -8 q1 2 2 4 q1 2 2 4 l0 0 Z" /><glyph glyph-name="" unicode="q" d="M340 183 q-3 3 -7 3 q-4 -1 -7 -4 q-35 -36 -78 -70 q-44 -33 -85 -61 q33 76 47 124 q13 47 1 67 q-2 4 -8 7 q-5 4 -15 4 q0 0 0 0 q0 0 0 0 q-19 0 -38 -15 q-18 -14 -35 -37 q-3 5 -7 9 q-4 4 -9 7 q-11 8 -25 9 q-13 1 -27 -4 q-19 -8 -37 -27 q-19 -19 -34 -48 q-15 -27 -23 -53 q-8 -27 -7 -48 q0 -22 8 -32 q8 -10 17 -13 q26 -8 53 25 q26 33 55 84 q13 23 28 44 q2 -5 8 -5 q5 -1 7 2 q3 3 3 7 q1 11 -2 21 q17 24 33 39 q17 15 32 16 q0 0 0 0 q0 0 0 0 q4 0 5 -1 q1 -1 2 -2 q4 -3 2 -24 q-2 -21 -20 -71 q-9 -23 -20 -50 q-11 -27 -24 -56 q-39 -26 -53 -38 q-14 -12 -14 -19 q-1 -3 0 -5 q1 -3 3 -5 q14 -12 21 -29 q-47 -103 -69 -167 q-22 -64 -11 -90 q3 -5 7 -9 q4 -3 10 -5 q5 -2 9 -2 q13 0 26 11 q13 11 25 31 q27 46 36 111 q9 64 -12 120 q6 11 10 21 q15 33 28 62 q0 0 0 0 q45 30 97 69 q53 39 94 83 q3 3 3 7 q0 4 -3 7 l0 0 ZM63 120 q-22 -38 -46 -71 q-24 -32 -40 -29 q-7 3 -9 11 q-3 7 -3 16 q1 41 28 91 q26 49 61 66 q8 3 16 3 q5 0 9 -1 q5 -2 9 -5 q5 -3 8 -8 q4 -5 6 -10 q-19 -30 -39 -63 l0 0 ZM70 -287 q-10 -17 -20 -26 q-10 -8 -18 -6 q-1 1 -2 1 q-1 1 -2 3 q-4 6 0 29 q3 22 20 70 q11 28 24 59 q13 32 28 64 q11 -49 2 -103 q-10 -54 -32 -91 l0 0 ZM103 -37 q-1 -3 -3 -7 q-3 4 -6 9 q-3 4 -7 8 q5 4 13 10 q7 5 18 13 q-7 -16 -15 -33 l0 0 Z" /><glyph glyph-name="" unicode="r" d="M334 184 q-4 2 -8 2 q-4 -1 -6 -5 q-1 -3 -31 -44 q-30 -40 -74 -90 q-53 -60 -92 -85 q-38 -25 -59 -12 q-19 13 -16 36 q3 23 18 57 q8 19 14 37 q6 18 6 35 q-2 27 -17 40 q-16 12 -33 18 q-9 4 -16 8 q-8 4 -11 10 q-7 19 9 44 q15 24 28 36 q3 3 3 7 q0 4 -3 7 q-3 3 -7 3 q-4 0 -7 -3 q-8 -7 -30 -38 q-22 -32 -11 -65 q6 -10 16 -16 q11 -7 22 -11 q15 -6 25 -14 q11 -9 12 -27 q0 -14 -5 -30 q-6 -16 -13 -33 q-15 -33 -19 -65 q-5 -31 25 -53 q6 -4 12 -5 q7 -2 14 -2 q54 0 150 108 q44 50 74 92 q31 41 32 44 q2 4 2 8 q-1 4 -4 6 l0 0 Z" /><glyph glyph-name="" unicode="s" d="M232 180 q-2 4 -5 5 q-4 1 -8 0 q-47 -22 -90 -49 q-44 -27 -83 -57 q-22 37 -26 88 q-4 50 47 96 q3 2 4 6 q0 4 -3 7 q-2 4 -6 4 q-4 0 -7 -2 q-29 -23 -42 -52 q-14 -29 -13 -64 q2 -28 11 -52 q9 -25 20 -43 q-27 -22 -51 -46 q-45 -44 -69 -84 q-25 -40 -27 -70 q-1 -15 5 -27 q6 -11 18 -18 q11 -6 24 -6 q19 0 40 12 q22 11 42 32 q38 39 54 94 q15 54 -11 108 q38 30 82 57 q43 26 89 48 q4 2 5 5 q1 4 0 8 l0 0 ZM-1 -126 q-23 -24 -45 -33 q-23 -10 -37 -2 q-15 8 -13 27 q1 26 25 63 q23 37 65 78 q22 23 47 42 q21 -47 6 -94 q-14 -47 -48 -81 l0 0 Z" /><glyph glyph-name="" unicode="t" d="M396 346 q1 8 -22 15 q-23 7 -103 12 q-66 4 -168 5 q9 18 16 34 q8 15 13 25 q11 23 19 44 q9 21 15 38 q10 28 11 38 q0 9 -2 10 q-3 6 -9 6 q-6 1 -10 -2 q-3 -3 -5 -6 q-13 -16 -35 -66 q-21 -49 -48 -121 q-20 0 -40 0 q-137 0 -241 -2 q-104 -3 -110 -3 q-5 0 -7 -3 q-3 -3 -3 -7 q0 -5 3 -7 q3 -3 7 -3 q7 0 106 3 q100 2 232 3 q24 0 46 0 q-7 -21 -16 -43 q-8 -13 -16 -25 q-9 -11 -17 -22 q-2 -4 -2 -8 q1 -4 4 -6 q5 -3 9 -2 q-13 -38 -25 -76 q-13 -38 -25 -76 q-28 -88 -50 -165 q-22 -77 -36 -137 q-23 -106 -23 -141 q0 -35 5 -38 q5 -9 10 -11 q6 -2 10 -2 q4 0 6 3 q3 2 3 6 q0 5 -3 7 q-2 3 -6 3 q-1 0 -1 0 q0 0 -2 4 q-1 4 -2 16 q-1 65 37 208 q38 144 87 293 q14 42 28 82 q13 41 27 79 q8 13 15 25 q7 13 14 25 q174 -1 230 -8 q56 -6 55 -10 q3 -6 9 -6 q2 0 3 0 q4 2 6 5 q2 3 1 7 l0 0 Z" /><glyph glyph-name="" unicode="u" d="M394 183 q-3 2 -7 2 q-4 -1 -7 -4 q-6 -8 -15 -19 q-31 -45 -80 -94 q-49 -50 -98 -47 q-25 4 -34 28 q-11 35 0 79 q10 45 26 71 q3 4 6 8 q2 3 2 7 q-1 4 -5 6 q-3 2 -7 2 q-4 0 -6 -4 q-3 -3 -6 -8 q-15 -21 -32 -50 q-17 -27 -36 -55 q-18 -27 -36 -49 q-19 -22 -34 -31 q-15 -8 -25 -4 q-6 2 -9 6 q-4 4 -6 9 q-9 29 9 79 q17 50 40 95 q2 4 1 8 q-1 3 -5 5 q-4 2 -8 1 q-3 -1 -5 -5 q-36 -73 -48 -119 q-12 -47 -2 -71 q3 -10 10 -16 q6 -6 15 -10 q8 -3 15 -3 q30 2 62 39 q32 37 63 87 q-5 -23 -4 -44 q0 -22 7 -40 q6 -17 19 -27 q12 -10 30 -13 q57 -5 110 48 q53 53 87 100 q4 5 8 10 q3 5 7 9 q2 3 2 7 q-1 4 -4 7 l0 0 Z" /><glyph glyph-name="" unicode="v" d="M325 180 q-2 3 -5 4 q-4 1 -8 0 q-60 -30 -92 -23 q-31 6 -38 16 q-10 9 -12 19 q-3 9 -1 15 q2 3 1 6 q-1 4 -4 6 q-3 2 -7 2 q-4 -1 -6 -4 q-14 -17 -29 -40 q-15 -23 -32 -49 q-14 -22 -28 -43 q-14 -22 -27 -38 q-16 -21 -24 -26 q-9 -5 -10 -4 q-4 2 -6 7 q-6 6 -4 46 q1 40 36 134 q1 4 0 7 q-2 3 -6 5 q-4 1 -7 0 q-3 -1 -5 -5 q-27 -71 -35 -121 q-8 -50 3 -75 q4 -8 9 -12 q5 -4 9 -5 q0 0 1 0 q1 0 3 0 q1 -1 2 -1 q21 1 46 33 q25 32 60 88 q11 17 22 34 q10 17 21 31 q2 -6 7 -12 q4 -7 9 -12 q8 -8 23 -15 q14 -7 37 -8 q42 -1 94 26 q3 2 4 6 q1 4 -1 8 l0 0 Z" /><glyph glyph-name="" unicode="w" d="M449 178 q-1 4 -4 6 q-4 1 -8 0 q-50 -16 -86 -11 q-37 4 -56 18 q-7 6 -14 15 q-6 10 -6 23 q0 3 -2 6 q-2 2 -5 3 q-7 3 -12 -4 q-7 -13 -14 -32 q-8 -20 -17 -43 q-15 -44 -36 -88 q-20 -44 -41 -50 q-4 0 -7 1 q-4 1 -6 3 q-16 18 -19 72 q-2 53 0 110 q0 3 -2 6 q-2 2 -5 3 q-8 2 -11 -4 q-13 -20 -25 -41 q-12 -22 -24 -42 q-12 -22 -24 -42 q-11 -20 -21 -35 q-13 -19 -19 -25 q-6 -6 -7 -6 q-1 0 -2 3 q-5 32 21 99 q25 67 35 85 q2 3 2 7 q-1 4 -4 6 q-4 2 -8 2 q-4 -1 -6 -4 q-4 -5 -14 -30 q-11 -25 -23 -58 q-23 -62 -24 -86 q-1 -24 3 -28 q2 -7 7 -10 q4 -4 8 -5 q1 0 2 0 q1 -1 3 -1 q15 0 35 30 q20 29 53 89 q7 12 15 25 q7 12 14 25 q-1 -55 3 -98 q5 -43 24 -61 q11 -10 28 -9 q29 5 52 50 q22 44 42 100 q5 13 9 25 q5 12 9 23 q7 -13 22 -24 q29 -21 71 -23 q43 -3 88 13 q5 2 6 5 q2 3 0 7 l0 0 Z" /><glyph glyph-name="" unicode="x" d="M308 183 q-3 2 -7 2 q-5 -1 -7 -4 q-36 -54 -70 -90 q-34 -36 -65 -53 q-50 -27 -86 -5 q-16 9 -28 27 q-12 18 -19 42 q14 13 30 28 q36 32 70 57 q34 25 53 33 q4 2 5 5 q1 4 0 8 q-2 4 -5 5 q-4 1 -8 0 q-21 -9 -56 -35 q-35 -26 -72 -58 q-10 -9 -22 -21 q-4 26 -2 49 q2 23 10 40 q2 3 1 7 q-1 4 -5 6 q-3 1 -7 0 q-4 -1 -6 -4 q-11 -23 -13 -53 q-2 -30 5 -61 q-22 -22 -39 -45 q-18 -24 -22 -42 q-1 -10 1 -17 q3 -6 7 -10 q1 -1 3 -2 q2 0 4 0 q4 0 7 3 q3 3 3 7 q-1 4 -4 7 q-1 0 -2 2 q0 2 1 6 q2 11 14 29 q12 18 33 40 q8 -22 22 -41 q13 -18 31 -29 q8 -5 19 -9 q11 -3 25 -3 q13 0 28 4 q16 3 33 13 q66 38 143 149 q2 3 1 7 q-1 4 -4 6 l0 0 Z" /><glyph glyph-name="" unicode="y" d="M372 181 q-2 3 -6 4 q-4 0 -7 -2 q-126 -108 -210 -289 q-83 -182 -117 -290 q3 16 10 39 q6 23 16 53 q18 58 43 123 q25 65 51 132 q21 56 40 106 q19 50 33 91 q20 56 23 80 q3 24 -3 30 q-4 6 -12 6 q-16 0 -37 -22 q-21 -23 -52 -65 q-30 -41 -64 -79 q-34 -37 -58 -35 q-9 2 -13 11 q-8 21 -2 58 q6 36 21 67 q1 4 0 8 q-1 3 -4 5 q-4 2 -8 1 q-4 -1 -6 -5 q-16 -35 -23 -75 q-6 -41 5 -67 q4 -9 10 -15 q7 -5 16 -7 q2 -1 4 -1 q2 0 4 0 q30 2 64 39 q34 36 69 83 q13 17 25 32 q11 15 21 26 q10 11 16 16 q6 4 9 5 q1 -4 -4 -25 q-4 -20 -20 -68 q-14 -40 -32 -89 q-19 -50 -40 -104 q-67 -170 -102 -278 q-34 -107 -20 -140 q3 -5 9 -5 q0 0 0 0 q6 1 9 5 q2 4 5 12 q1 5 4 12 q2 7 6 17 q29 99 113 287 q84 188 212 299 q4 3 4 7 q1 4 -2 7 l0 0 Z" /><glyph glyph-name="" unicode="z" d="M281 181 q-2 3 -6 4 q-4 0 -7 -2 q-54 -44 -101 -85 q-47 -40 -86 -76 q-13 6 -28 12 q-16 5 -35 9 q48 53 65 82 q17 30 8 44 q-7 14 -29 16 q-21 3 -47 0 q-6 0 -10 0 q-5 0 -7 -3 q-3 -3 -3 -7 q0 -4 3 -7 q2 -3 7 -3 q2 0 5 1 q2 0 6 0 q8 1 18 1 q10 1 20 0 q12 -2 16 -4 q4 -2 4 -3 q0 -1 0 -1 q0 0 1 -1 q1 1 -1 -7 q-2 -9 -18 -32 q-10 -14 -26 -33 q-16 -18 -38 -43 q-2 -2 -2 -4 q-1 -3 0 -5 q2 -6 8 -7 q20 -4 37 -8 q17 -5 31 -12 q-30 -28 -55 -54 q-25 -26 -45 -50 q-42 -48 -61 -84 q-19 -37 -15 -60 q2 -11 8 -19 q6 -8 17 -12 q11 -4 21 -4 q29 1 63 19 q33 19 62 46 q38 34 63 80 q25 45 14 90 q-10 31 -40 52 q38 35 84 75 q45 39 98 82 q3 2 4 6 q0 4 -3 7 l0 0 ZM119 -47 q9 -38 -14 -78 q-22 -41 -57 -72 q-36 -33 -71 -48 q-34 -16 -55 -9 q-12 4 -13 16 q-3 10 10 40 q12 30 61 89 q42 48 103 106 q29 -18 36 -44 l0 0 Z" /><glyph glyph-name="" unicode="{" d="M218 467 q8 2 14 1 q6 -1 11 -5 q8 -7 5 -21 q-1 -4 1 -7 q2 -3 7 -4 q4 -1 7 1 q3 2 4 6 q3 12 0 22 q-3 10 -11 17 q-8 8 -19 11 q-12 2 -25 -2 q-32 -11 -49 -48 q-16 -37 -29 -86 q-14 -56 -38 -106 q-25 -51 -75 -68 q-9 0 -17 -4 q-4 -2 -5 -5 q-2 -3 -1 -6 q1 -4 4 -6 q3 -2 7 -1 q8 0 15 3 q11 -1 17 -6 q11 -6 17 -16 q6 -11 8 -23 q2 -27 -10 -58 q-11 -31 -27 -63 q-7 -15 -14 -30 q-7 -16 -12 -31 q-15 -48 -5 -71 q10 -23 19 -27 q6 -4 12 -6 q6 -2 13 -2 q12 0 23 7 q3 3 4 7 q0 4 -3 7 q-2 3 -6 4 q-4 0 -7 -2 q-5 -4 -12 -4 q-7 1 -12 5 q-10 7 -14 26 q-4 18 6 49 q5 14 12 30 q7 15 14 30 q17 33 28 67 q12 33 10 64 q-2 17 -10 31 q-9 14 -23 23 q33 18 56 57 q15 27 26 57 q10 31 19 63 q11 44 26 78 q14 34 39 42 l0 0 Z" /><glyph glyph-name="" unicode="|" d="M259 510 q-4 1 -7 0 q-4 -2 -5 -6 l-235 -699 q-1 -4 0 -7 q2 -4 6 -5 q2 -1 3 -1 q3 0 6 2 q2 2 3 5 l235 698 q1 5 0 8 q-2 3 -6 5 l0 0 Z" /><glyph glyph-name="" unicode="}" d="M228 382 q14 48 4 71 q-10 23 -19 27 q-12 8 -24 8 q-13 0 -23 -8 q-3 -2 -4 -6 q0 -4 2 -7 q3 -3 7 -4 q4 0 7 2 q5 4 11 4 q7 -1 13 -5 q10 -7 14 -25 q4 -19 -7 -50 q-11 -30 -26 -60 q-16 -33 -28 -67 q-12 -33 -10 -64 q2 -17 11 -31 q9 -14 23 -23 q-33 -18 -56 -57 q-15 -27 -26 -58 q-10 -31 -19 -62 q-11 -44 -26 -78 q-15 -34 -39 -43 q-8 -2 -14 0 q-7 1 -12 5 q-4 3 -5 9 q-1 5 0 11 q1 5 -1 8 q-2 3 -6 4 q-5 1 -8 -1 q-3 -2 -4 -7 q-2 -11 1 -21 q2 -10 10 -18 q12 -10 29 -10 q8 0 15 2 q32 10 49 48 q17 37 30 85 q14 57 38 107 q25 51 75 68 q8 0 17 4 q3 1 5 4 q2 3 1 7 q-2 4 -4 6 q-3 2 -7 1 q-7 0 -15 -3 q-5 0 -10 2 q-5 2 -8 4 q-10 6 -16 17 q-7 10 -8 22 q-2 27 9 58 q12 31 27 63 q15 31 27 61 l0 0 Z" /><glyph glyph-name="" unicode="~" d="M232 183 q-33 -28 -53 -27 q-10 2 -17 9 q-7 8 -14 17 q-8 12 -18 21 q-10 10 -26 12 q-14 2 -31 -6 q-17 -8 -39 -26 q-3 -3 -3 -7 q0 -4 2 -7 q3 -3 7 -3 q4 -1 7 2 q17 15 31 22 q14 7 24 6 q9 -1 16 -8 q7 -7 14 -17 q8 -12 18 -22 q11 -10 26 -12 q3 0 6 0 q26 0 63 31 q3 2 4 6 q0 4 -3 7 q-2 4 -6 4 q-4 0 -8 -2 l0 0 Z" /><glyph glyph-name="" unicode="&#xe000;" d="M734 183 q-3 2 -7 2 q-4 0 -6 -4 q-7 -7 -15 -19 q-32 -44 -81 -94 q-49 -50 -98 -47 q-27 5 -38 29 q-11 27 -5 62 q5 34 21 58 q2 3 2 7 q-1 4 -4 6 q-3 2 -7 2 q-4 0 -6 -3 q-8 -7 -14 -16 q-1 8 -4 15 q-4 7 -9 13 q-11 10 -25 13 q-15 2 -30 -3 q-29 -9 -50 -29 q-22 -19 -36 -43 q-21 -28 -65 -71 q-44 -43 -90 -40 q-24 4 -33 26 q-12 33 -2 80 q11 47 29 75 q2 3 2 7 q-1 3 -4 6 q-3 2 -7 2 q-4 -1 -6 -3 q-7 -8 -15 -17 q-8 -10 -16 -21 q0 11 -4 19 q-3 7 -7 11 q-9 10 -23 13 q-13 2 -29 -3 q-24 -8 -46 -26 q-22 -19 -39 -47 q-14 -24 -23 -50 q-8 -26 -8 -47 q1 -23 9 -33 q8 -9 15 -11 q2 -1 5 -1 q3 0 5 0 q30 2 64 39 q33 36 69 87 q4 5 7 10 q3 5 7 10 q-8 -28 -9 -56 q-1 -29 8 -52 q7 -16 19 -25 q12 -9 29 -12 q6 -1 12 -1 q32 1 64 22 q31 21 58 51 q-3 -15 -3 -27 q1 -24 9 -33 q8 -10 16 -12 q6 -2 12 -2 q29 2 60 33 q30 32 62 75 q6 8 12 15 q-5 -21 -3 -42 q1 -21 8 -39 q8 -17 21 -27 q13 -10 32 -13 q6 -1 12 -1 q54 4 104 55 q50 50 81 95 q9 11 15 18 q2 3 2 7 q-1 4 -4 7 l0 0 ZM92 145 q-3 -3 -5 -6 q-30 -44 -65 -83 q-34 -39 -57 -35 q-7 3 -8 11 q-2 9 -2 14 q0 19 8 42 q7 23 20 44 q16 25 35 42 q19 17 40 24 q7 2 13 2 q6 0 11 -2 q5 -2 8 -5 q11 -12 0 -38 q-1 -2 0 -5 q0 -3 2 -5 l0 0 ZM455 141 q-8 -10 -16 -21 q-30 -41 -60 -72 q-31 -32 -53 -27 q-7 3 -9 12 q-3 8 -3 14 q0 16 6 35 q7 19 18 38 q0 0 0 0 q0 1 1 1 q0 1 0 1 q13 21 32 38 q19 17 43 25 q7 3 13 3 q7 0 13 -2 q5 -2 9 -6 q6 -6 7 -14 q1 -8 -1 -18 q-1 -3 0 -7 l0 0 Z" /><glyph glyph-name="" unicode="&#xe001;" d="M496 183 q-3 2 -7 2 q-5 -1 -7 -4 q-39 -53 -103 -111 q-64 -59 -114 -54 q-23 7 -28 26 q-5 18 -1 37 q4 21 14 42 q9 22 23 41 q3 4 5 7 q1 0 1 1 q17 20 34 30 q17 10 32 9 q12 -1 16 -10 q3 -7 2 -14 q-1 -7 -3 -11 q-2 -3 -2 -7 q1 -4 4 -6 q3 -2 7 -2 q5 1 7 4 q5 8 6 20 q2 12 -3 24 q-5 9 -13 15 q-8 5 -19 7 q-20 2 -41 -10 q-22 -12 -42 -37 q0 0 0 0 q0 -1 -1 -1 q0 0 0 0 q0 0 0 0 q-3 -4 -5 -7 q-16 -21 -46 -55 q-30 -34 -69 -67 q-41 -35 -76 -49 q-34 -15 -59 -9 q-29 8 -35 31 q-7 23 -2 47 q5 28 19 57 q14 30 34 54 q21 26 42 38 q21 13 40 11 q15 -2 21 -14 q4 -9 2 -18 q-1 -9 -4 -14 q-2 -3 -2 -7 q1 -4 4 -6 q4 -2 8 -2 q4 1 6 4 q6 9 8 23 q1 14 -5 28 q-5 11 -14 18 q-9 6 -22 8 q-24 2 -49 -12 q-26 -15 -50 -44 q-22 -27 -37 -58 q-15 -32 -20 -62 q-7 -42 6 -68 q13 -26 45 -33 q5 -1 10 -2 q5 0 10 0 q51 3 104 42 q53 40 94 86 q-1 -5 -2 -9 q-1 -5 -2 -10 q-6 -34 6 -56 q11 -22 38 -29 q4 -1 7 -1 q4 0 8 0 q70 9 138 80 q69 70 84 93 q2 4 2 8 q-1 4 -4 6 l0 0 Z" /><glyph glyph-name="" unicode="&#xe002;" d="M452 183 q-3 2 -7 2 q-4 0 -7 -3 q-31 -41 -98 -104 q-68 -64 -126 -57 q-10 3 -16 9 q-6 5 -8 15 q-2 9 -1 21 q1 11 5 24 q0 0 2 0 q19 -4 36 3 q18 8 27 16 q14 12 25 25 q10 14 14 26 q3 14 -2 22 q-5 8 -13 10 q-14 4 -30 -1 q-16 -6 -32 -21 q-5 -4 -9 -9 q-4 -5 -8 -11 q-63 -72 -115 -105 q-51 -33 -89 -24 q-26 8 -31 28 q-4 21 -1 37 q3 11 6 21 q1 -1 2 -2 q2 -1 4 -1 q26 -6 55 10 q30 15 51 38 q25 30 19 50 q-2 5 -8 10 q-6 5 -19 7 q-20 3 -42 -8 q-21 -10 -41 -32 q-17 -19 -29 -43 q-12 -23 -17 -47 q-6 -34 6 -56 q12 -23 40 -30 q10 -3 22 -3 q66 0 156 89 q-4 -13 -4 -25 q-1 -13 2 -24 q8 -29 38 -38 q5 -1 10 -1 q4 -1 9 -1 q25 0 55 14 q30 15 64 44 q34 30 62 61 q28 31 44 50 q3 3 3 7 q-1 4 -4 7 l0 0 ZM219 138 q0 0 0 1 q0 0 1 0 q0 1 1 1 q0 0 0 1 q6 8 14 15 q7 7 18 14 q12 6 24 3 q2 0 3 -1 q0 -2 -1 -7 q-7 -20 -31 -40 q-24 -20 -47 -17 q8 17 18 30 l0 0 ZM76 200 q3 0 6 -1 q3 -1 4 -4 q2 -3 -2 -11 q-3 -8 -13 -19 q-18 -20 -42 -33 q-25 -13 -45 -9 q0 0 -2 0 q-1 0 -2 0 q16 33 42 56 q26 23 54 21 l0 0 Z" /><glyph glyph-name="" unicode="&#xe003;" d="M377 183 q-3 3 -7 2 q-4 -1 -6 -4 q-18 -26 -83 -92 q-65 -67 -140 -127 q6 21 13 43 q7 22 15 44 q5 13 8 25 q40 52 65 106 q26 55 23 76 q-2 5 -4 8 q-3 2 -5 3 q0 0 0 0 q-3 1 -7 0 q-4 -1 -9 -5 q-15 -15 -37 -66 q-21 -52 -43 -113 q-12 -15 -25 -27 q-46 -46 -100 -81 q-53 -36 -101 -55 q6 22 14 46 q21 69 46 140 q24 70 48 136 q2 -3 5 -3 q4 -1 8 1 q3 1 4 6 q11 39 29 94 q17 56 19 62 q1 4 0 7 q-1 3 -5 5 q-4 1 -8 0 q-3 -1 -5 -5 q-36 -79 -79 -198 q-44 -119 -81 -239 q-9 -30 -18 -60 q-8 -3 -16 -5 q-8 -1 -15 -2 q-4 0 -9 0 q-4 -1 -6 -4 q-3 -3 -3 -7 q1 -4 4 -6 q2 -3 6 -3 q2 0 5 0 q3 0 5 1 q11 0 21 -2 q-26 -90 -40 -166 q-13 -77 -1 -109 q2 -6 7 -10 q4 -4 9 -6 q3 -1 7 -1 q7 0 16 5 q8 4 19 16 q34 43 53 117 q18 75 -7 130 q-5 11 -14 20 q-9 10 -24 17 q55 19 113 58 q57 38 103 82 q-5 -14 -9 -27 q-4 -13 -7 -25 q-4 -10 -7 -21 q-3 -11 -7 -22 q-17 -12 -33 -22 q-16 -10 -31 -16 q-3 -2 -4 -5 q-2 -3 -1 -7 q1 -3 4 -5 q2 -2 6 -2 q12 1 23 1 q11 -1 20 -3 q-19 -69 -30 -125 q-10 -55 -6 -80 q3 -15 14 -19 q23 -6 47 22 q26 32 40 84 q13 53 -7 96 q-4 9 -13 18 q-9 9 -22 16 q2 8 5 17 q3 9 5 18 q82 62 155 136 q73 74 94 104 q2 3 2 7 q-1 4 -5 6 l0 0 ZM242 232 q-3 -10 -9 -26 q-7 -15 -17 -35 q-4 -8 -9 -16 q11 28 20 47 q9 19 15 30 l0 0 ZM-51 -149 q21 -48 4 -117 q-17 -70 -48 -108 q-8 -9 -13 -12 q-6 -3 -8 -2 q-2 0 -3 2 q-1 1 -2 3 q-9 22 2 89 q11 67 41 172 q17 -7 27 -27 l0 0 ZM92 -96 q4 2 7 4 q3 2 7 4 q-1 -5 -3 -10 q-3 1 -5 1 q-3 0 -6 1 l0 0 ZM139 -148 q17 -37 4 -84 q-12 -47 -35 -74 q-7 -9 -14 -13 q-6 -4 -11 -3 q-2 1 -3 14 q-1 14 5 52 q5 26 13 60 q7 34 18 72 q15 -9 23 -24 l0 0 Z" /><glyph glyph-name="" unicode="&#xe004;" d="M581 184 q-4 1 -8 0 q-3 -1 -5 -4 q-24 -48 -82 -109 q-57 -60 -109 -50 q-22 8 -30 39 q-7 32 0 80 q2 13 4 26 q3 13 7 27 q43 69 81 131 q38 62 67 114 q21 37 36 64 q14 28 23 48 q12 27 14 42 q1 15 -8 21 q-3 3 -8 4 q-6 1 -14 -3 q-26 -13 -60 -66 q-33 -54 -63 -115 q-29 -61 -51 -120 q-22 -60 -36 -112 q-25 -43 -54 -87 q-44 -69 -86 -138 q19 68 28 131 q9 63 -2 100 q-6 17 -16 24 q-9 7 -17 8 q-19 3 -36 -8 q-17 -11 -33 -31 q-5 6 -11 10 q-12 9 -27 11 q-15 2 -32 -3 q-49 -17 -76 -64 q-27 -46 -27 -93 q1 -23 9 -39 q9 -15 24 -19 q26 -6 51 25 q24 31 50 78 q8 13 17 26 q8 14 16 26 q0 0 -1 -2 q0 -4 3 -7 q3 -3 7 -3 q4 0 7 3 q3 2 3 7 q0 13 -3 25 q14 19 28 30 q13 11 27 8 q14 -3 19 -21 q4 -17 4 -37 q0 -46 -14 -111 q-14 -65 -37 -137 q-33 -54 -63 -105 q-31 -50 -57 -97 q-73 -129 -90 -179 q-17 -50 -8 -61 q2 -5 7 -9 q4 -3 10 -4 q2 -1 3 -1 q8 0 15 6 q6 5 11 11 q31 37 76 133 q45 97 88 220 q5 15 12 35 q7 20 14 43 q30 49 61 99 q31 50 63 100 q7 11 13 21 q6 10 13 20 q0 0 0 -2 q-9 -57 2 -94 q11 -36 40 -47 q28 -9 61 5 q33 15 71 52 q30 31 52 62 q22 32 31 50 q1 4 0 7 q-1 4 -4 6 l0 0 ZM440 416 q32 69 63 117 q30 48 50 61 q5 3 6 3 q0 -3 -2 -14 q-3 -11 -15 -35 q-9 -21 -24 -48 q-15 -28 -35 -64 q-23 -38 -49 -82 q-27 -43 -56 -91 q12 37 28 75 q15 39 34 78 l0 0 ZM68 116 q-21 -37 -42 -67 q-22 -29 -37 -27 q-12 4 -16 17 q-3 13 -3 22 q-1 37 22 80 q22 42 67 59 q4 1 8 2 q4 0 8 0 q7 0 14 -2 q6 -2 11 -6 q3 -2 6 -5 q2 -2 4 -5 q-10 -16 -21 -33 q-10 -18 -21 -35 l0 0 ZM104 -248 q-22 -56 -44 -106 q-22 -49 -42 -88 q-29 -53 -42 -67 q-13 -15 -14 -14 q-1 0 -1 1 q0 0 -1 1 q-5 5 11 53 q17 47 86 170 q34 60 76 128 q-15 -40 -29 -78 l0 0 Z" /><glyph glyph-name="" unicode="&#xe005;" d="M470 184 q-4 1 -8 0 q-3 -1 -5 -4 q-24 -48 -81 -109 q-57 -60 -110 -50 q-21 8 -31 37 q-9 29 -5 71 q42 56 77 115 q35 59 57 107 q11 23 19 43 q8 20 13 35 q7 21 6 32 q0 11 -8 15 q-3 2 -8 3 q-4 0 -11 -3 q-25 -15 -51 -59 q-27 -43 -38 -67 q-28 -55 -47 -107 q-18 -53 -26 -96 q0 -3 0 -5 q-1 -3 -1 -6 q-15 -19 -30 -35 q-14 -16 -28 -30 q-25 -24 -55 -41 q-30 -18 -57 -9 q-22 9 -30 40 q-7 31 0 79 q1 7 2 15 q1 7 3 14 q0 0 0 0 q21 25 58 85 q37 60 77 134 q29 53 60 118 q31 65 31 94 q-1 4 -2 7 q-2 3 -4 5 q-3 3 -8 4 q-6 2 -14 -1 q-25 -12 -59 -66 q-34 -53 -64 -115 q-38 -79 -64 -155 q-26 -76 -35 -136 q-9 -57 2 -93 q11 -36 40 -48 q12 -4 25 -4 q31 0 69 26 q37 27 80 79 q1 -39 14 -65 q13 -27 37 -36 q27 -9 61 5 q33 15 70 52 q30 31 52 62 q22 32 31 50 q2 4 1 7 q-1 4 -5 6 l0 0 ZM308 350 q28 54 48 80 q19 25 27 28 q0 -13 -17 -55 q-16 -41 -50 -104 q-18 -34 -38 -66 q-19 -31 -39 -60 q10 40 27 86 q18 46 42 91 l0 0 ZM217 593 q5 4 6 4 q2 -9 -16 -54 q-19 -45 -70 -141 q-28 -53 -56 -100 q-29 -48 -51 -82 q36 121 93 232 q57 111 94 141 l0 0 Z" /><glyph glyph-name="" unicode="&#xe006;" d="M1086 183 q-3 2 -7 2 q-4 -1 -6 -4 q-56 -74 -99 -112 q-42 -37 -70 -37 q0 0 0 0 q-17 1 -29 13 q-12 11 -22 27 q-9 12 -18 22 q-9 10 -22 12 q-15 2 -33 -7 q-17 -10 -37 -24 q-18 -13 -35 -23 q-18 -10 -31 -8 q-12 2 -13 22 q-2 20 2 48 q3 22 3 37 q-1 12 -5 18 q-4 7 -12 8 q0 0 0 0 q-21 2 -45 -24 q-24 -27 -64 -84 q-2 -3 -3 -5 q-2 -3 -4 -6 q2 8 4 15 q3 8 5 15 q15 46 18 71 q4 25 -6 33 q-20 7 -45 -19 q-26 -26 -28 -31 q-26 -29 -55 -56 q-30 -28 -54 -30 q0 0 0 0 q-20 0 -29 15 q-9 15 -16 41 q-5 21 -14 38 q-9 18 -29 23 q-33 5 -67 -24 q-33 -29 -61 -64 q-8 -9 -15 -17 q-7 -8 -13 -13 q2 12 5 30 q4 18 8 35 q12 50 16 82 q4 31 -5 44 q-4 6 -12 8 q-30 2 -59 -41 q-30 -43 -63 -110 q-19 -39 -42 -79 q-2 2 -2 3 q-7 18 6 58 q14 40 30 79 q11 27 20 50 q1 4 0 7 q-2 3 -6 5 q-4 1 -8 0 q-3 -2 -5 -6 q-4 -11 -9 -23 q-5 -12 -10 -25 q-20 -48 -33 -89 q-13 -42 -2 -65 q6 -13 21 -16 q1 0 2 0 q2 0 5 1 q2 2 3 4 q13 21 24 43 q12 22 23 44 q16 30 30 56 q15 27 29 47 q13 19 24 29 q10 9 18 8 q1 0 2 -8 q1 -8 -2 -29 q-2 -17 -6 -35 q-4 -19 -8 -38 q-11 -46 -13 -67 q-2 -21 7 -26 q3 -2 8 -2 q4 0 11 5 q8 6 17 16 q9 10 19 23 q25 30 54 57 q30 27 55 24 q11 -3 17 -17 q6 -13 11 -31 q6 -25 19 -47 q14 -22 45 -23 q0 0 0 0 q30 2 62 30 q31 29 61 63 q13 14 26 28 q13 14 21 18 q1 -11 -6 -36 q-7 -25 -13 -45 q-4 -14 -7 -25 q-4 -12 -6 -22 q-3 -8 -3 -19 q0 -10 10 -14 q3 -1 6 0 q2 1 4 4 q17 21 29 39 q34 47 55 74 q22 27 34 27 q2 -5 1 -17 q-1 -13 -2 -24 q-2 -14 -3 -28 q-1 -15 0 -27 q3 -21 12 -29 q9 -8 18 -9 q18 -2 39 9 q21 11 41 26 q16 11 31 20 q16 9 25 8 q7 -1 14 -9 q6 -8 13 -18 q11 -17 27 -31 q15 -15 39 -16 q1 0 1 0 q34 0 79 38 q45 39 105 118 q3 4 2 8 q0 4 -4 6 l0 0 Z" /><glyph glyph-name="" unicode="&#xe007;" d="M826 182 q-135 -151 -186 -140 q-17 5 -26 25 q-8 19 -14 42 q-4 18 -10 31 q-5 14 -15 20 q-13 9 -35 2 q-21 -6 -52 -28 q-20 -14 -41 -33 q-22 -19 -45 -42 q2 7 5 14 q3 8 6 14 q13 31 19 56 q7 26 -5 39 q-5 4 -8 4 q-4 1 -4 1 q-10 0 -23 -11 q-12 -12 -33 -36 q-27 -32 -59 -60 q-33 -29 -63 -27 q-24 4 -32 27 q-8 22 -10 56 q-1 18 -4 32 q-3 14 -11 20 q-13 8 -36 -1 q-23 -10 -57 -40 q-24 -21 -50 -46 q-25 -25 -49 -51 q-1 7 0 20 q1 12 5 30 q6 28 17 56 q10 28 24 53 q2 4 1 8 q-1 4 -5 6 q-3 2 -7 1 q-4 -1 -6 -5 q-14 -27 -26 -56 q-11 -29 -17 -58 q-6 -23 -6 -46 q-1 -23 9 -34 q3 -3 7 -3 q0 0 0 0 q4 0 7 3 q26 28 54 56 q28 29 55 51 q39 33 54 38 q14 4 15 1 q3 -2 4 -14 q1 -12 2 -22 q1 -31 12 -62 q10 -32 47 -39 q5 -1 9 -1 q35 2 68 31 q34 30 62 63 q11 12 23 24 q12 12 18 16 q1 -1 1 -7 q0 -6 -3 -16 q-3 -11 -8 -24 q-5 -13 -10 -26 q-12 -28 -15 -45 q-4 -17 3 -24 q4 -3 7 -3 q0 0 0 0 q5 0 7 3 q66 69 111 98 q44 29 57 21 q1 0 1 0 q5 -4 9 -16 q4 -12 8 -25 q6 -25 18 -49 q11 -24 36 -31 q2 0 5 0 q3 -1 6 -1 q32 0 80 36 q47 36 113 111 q3 3 3 7 q-1 4 -4 7 q-3 2 -7 2 q-4 0 -6 -3 l0 0 Z" /><glyph glyph-name="" unicode="&#xe008;" d="M600 183 q-29 -20 -83 -27 q-54 -6 -95 1 q-2 17 -8 29 q-6 12 -15 15 q-4 2 -12 1 q-7 -2 -15 -14 q0 0 0 -1 q-5 -9 -3 -18 q2 -9 10 -16 q9 -7 24 -12 q0 -2 0 -5 q-1 -3 -1 -6 q-5 -31 -19 -58 q-14 -27 -34 -41 q-10 -7 -19 -9 q-9 -3 -19 -1 q-9 3 -13 11 q-5 9 -6 18 q-5 35 8 76 q13 42 38 58 q5 3 7 7 q1 4 0 8 q-1 5 -8 8 q-7 3 -23 5 q-11 1 -25 2 q-15 1 -33 1 q-38 1 -82 0 q-44 -1 -87 -4 q-4 -1 -6 -3 q-3 -3 -4 -7 q0 -4 3 -6 q2 -3 6 -4 q14 -4 15 -23 q2 -20 -1 -38 q-5 -30 -20 -57 q-15 -27 -36 -42 q-7 -5 -16 -8 q-8 -4 -19 -2 q-14 4 -19 25 q-6 21 -1 54 q7 44 31 77 q23 34 57 32 q4 -1 7 2 q3 2 4 6 q0 5 -3 8 q-2 3 -6 3 q-43 3 -72 -35 q-29 -38 -37 -90 q-7 -42 3 -69 q9 -27 32 -32 q24 -5 50 13 q24 17 42 48 q17 30 22 64 q4 25 2 41 q-2 15 -7 25 q70 4 124 3 q55 -1 79 -4 q-25 -25 -37 -68 q-12 -42 -7 -78 q3 -19 12 -30 q8 -11 22 -14 q6 -1 12 -1 q21 0 41 14 q23 16 39 46 q16 30 22 66 q1 2 1 5 q0 3 0 5 q48 -7 104 1 q55 8 86 29 q3 3 4 7 q0 4 -2 7 q-3 3 -7 4 q-4 0 -7 -2 l0 0 ZM391 168 q-3 2 -3 5 q-1 2 1 5 q1 2 2 3 q1 1 2 2 q2 -1 5 -7 q2 -5 4 -14 q-7 3 -11 6 l0 0 Z" /><glyph glyph-name="" unicode="&#xe009;" d="M850 183 q-3 2 -7 2 q-4 -1 -6 -4 q-50 -66 -87 -98 q-36 -32 -58 -30 q-15 2 -26 18 q-11 16 -21 37 q-10 23 -23 42 q-14 18 -35 23 q-36 3 -69 -26 q-33 -28 -59 -62 q-7 -9 -14 -17 q-7 -8 -13 -13 q2 12 5 30 q4 18 8 35 q11 50 15 82 q5 31 -4 44 q-4 6 -13 8 q-27 1 -57 -43 q-31 -45 -67 -114 q-18 -34 -37 -69 q0 9 5 24 q4 14 9 29 q11 28 17 56 q6 28 -4 48 q-15 25 -56 29 q-40 3 -94 -2 q-19 -1 -38 -2 q-19 -1 -38 0 q0 0 -1 0 q5 2 6 7 q0 5 -3 8 q-2 3 -6 3 q-44 3 -72 -35 q-29 -38 -37 -90 q-7 -42 3 -69 q9 -27 32 -32 q3 -1 6 -1 q2 0 5 0 q20 0 39 14 q24 17 42 48 q17 30 22 64 q3 20 1 36 q-2 16 -9 27 q25 2 49 3 q47 4 84 2 q37 -2 48 -19 q7 -15 1 -40 q-6 -25 -15 -49 q-9 -25 -14 -43 q-4 -19 2 -31 q2 -5 7 -7 q4 -3 9 -4 q3 -1 6 1 q2 1 4 4 q11 20 23 40 q11 21 22 41 q16 31 32 58 q15 28 29 49 q16 24 27 32 q10 8 15 7 q1 -1 2 -9 q1 -7 -2 -28 q-2 -17 -6 -35 q-4 -19 -9 -38 q-10 -46 -12 -67 q-2 -21 7 -26 q2 -2 7 -2 q5 0 11 5 q8 6 17 16 q9 10 19 22 q24 30 53 57 q29 26 57 24 q14 -3 24 -18 q11 -15 20 -35 q11 -24 25 -43 q14 -20 37 -23 q2 -1 5 -1 q27 0 66 33 q38 33 91 103 q3 4 2 8 q0 4 -4 6 l0 0 ZM100 130 q-5 -30 -20 -57 q-15 -27 -36 -42 q-7 -5 -16 -8 q-9 -4 -19 -2 q-14 4 -19 25 q-6 21 -1 54 q7 42 29 75 q21 32 53 34 q3 0 5 0 q-2 -1 -4 -4 q-2 -2 -2 -5 q1 -5 4 -7 q2 -3 6 -3 q2 0 2 0 q3 0 5 -2 q3 -1 4 -3 q7 -8 9 -22 q2 -14 0 -33 l0 0 Z" /><glyph glyph-name="" unicode="&#xe00a;" d="M715 182 q-79 -87 -121 -111 q-43 -25 -60 -17 q-22 9 -30 38 q-8 30 -11 58 q-1 16 -4 25 q-2 9 -7 13 q-13 8 -36 -1 q-22 -10 -57 -40 q-22 -19 -46 -42 q-23 -24 -46 -48 q3 10 6 19 q9 26 14 54 q5 28 -6 50 q-18 29 -60 33 q-41 3 -96 -1 q-18 -1 -36 -2 q-18 -1 -36 0 q-1 0 -2 0 q2 1 4 3 q2 2 2 4 q1 5 -2 8 q-2 3 -7 3 q-43 3 -72 -35 q-28 -38 -37 -90 q-7 -42 3 -69 q9 -27 32 -32 q3 -1 6 -1 q2 0 5 0 q20 0 39 14 q24 17 42 48 q17 30 23 64 q2 20 0 36 q-2 16 -9 27 q24 2 46 3 q48 3 86 1 q38 -3 52 -24 q8 -16 3 -41 q-5 -24 -13 -47 q-7 -22 -9 -36 q-3 -14 5 -21 q2 -3 7 -3 q2 0 3 1 q2 1 3 2 q27 28 55 56 q28 29 54 51 q35 30 50 36 q15 6 18 4 q1 -3 2 -11 q1 -7 2 -14 q3 -31 13 -66 q11 -34 42 -46 q7 -2 16 -2 q32 0 78 34 q46 34 107 102 q2 3 2 7 q0 4 -3 7 q-3 2 -7 2 q-4 0 -7 -3 l0 0 ZM99 130 q-4 -30 -19 -57 q-16 -27 -37 -42 q-6 -5 -15 -8 q-9 -4 -20 -2 q-14 4 -19 25 q-5 21 -1 54 q7 42 29 75 q21 32 54 34 q2 0 5 0 q-6 -3 -6 -9 q0 -5 3 -7 q2 -3 6 -3 q2 0 3 0 q2 0 4 -2 q2 -1 4 -3 q7 -8 9 -22 q3 -14 0 -33 l0 0 Z" /><glyph glyph-name="" unicode="&#xe00c;" d="M692 183 q-4 2 -8 2 q-4 0 -6 -4 q-6 -7 -15 -19 q-32 -45 -81 -94 q-49 -50 -97 -47 q-25 4 -34 28 q-11 35 -1 79 q11 45 27 71 q1 2 3 4 q1 2 2 4 q2 3 2 7 q-1 4 -4 6 q-3 2 -7 2 q-4 0 -6 -3 q-1 -2 -3 -4 q-1 -2 -3 -5 q-8 -11 -16 -23 q-8 -12 -16 -26 q-17 -27 -36 -55 q-18 -28 -37 -50 q-38 -44 -59 -35 q-10 6 -6 29 q4 24 12 49 q7 23 12 44 q4 20 0 35 q-10 29 -53 33 q-44 5 -104 1 q-19 -1 -37 -2 q-19 -1 -38 0 q0 0 -1 0 q2 1 4 3 q1 2 1 4 q1 5 -2 8 q-2 3 -6 3 q-44 3 -73 -35 q-28 -38 -37 -90 q-6 -42 3 -69 q10 -27 33 -32 q24 -5 50 13 q24 17 41 48 q18 30 23 64 q3 20 1 36 q-2 16 -9 27 q24 1 48 2 q50 3 90 1 q40 -2 47 -20 q3 -11 -1 -30 q-5 -19 -11 -39 q-10 -33 -13 -62 q-3 -29 19 -39 q8 -3 14 -3 q31 2 63 39 q32 37 63 87 q-5 -23 -5 -44 q0 -22 7 -40 q7 -17 19 -27 q13 -10 30 -13 q58 -5 111 48 q53 53 87 100 q8 12 14 19 q3 3 3 7 q-1 4 -4 7 l0 0 ZM100 130 q-5 -30 -20 -57 q-16 -27 -37 -42 q-6 -5 -15 -8 q-9 -4 -19 -2 q-14 4 -20 25 q-5 21 0 54 q6 42 28 75 q22 32 54 34 q3 0 5 0 q-6 -3 -6 -9 q0 -5 3 -7 q2 -3 7 -3 q1 0 2 0 q3 0 5 -2 q2 -1 3 -3 q7 -8 10 -22 q2 -14 0 -33 l0 0 Z" /><glyph glyph-name="" unicode="&#xe00d;" d="M1386 183 q-3 2 -7 2 q-4 -1 -7 -4 q-56 -74 -98 -112 q-42 -37 -70 -37 q0 0 -1 0 q-16 1 -28 13 q-12 11 -22 27 q-9 12 -18 22 q-9 10 -22 12 q-15 2 -33 -7 q-18 -10 -37 -24 q-18 -13 -36 -23 q-18 -10 -31 -8 q-12 2 -13 22 q-1 20 3 48 q1 11 2 20 q1 9 0 17 q0 12 -4 18 q-4 7 -12 8 q0 0 -1 0 q-19 2 -42 -23 q-23 -25 -60 -79 q-5 -7 -11 -15 q3 12 6 22 q15 49 19 76 q4 26 -6 34 q0 1 -1 1 q-12 8 -29 -6 q-18 -15 -44 -45 q-26 -29 -55 -56 q-30 -28 -54 -30 q0 0 0 0 q-19 0 -28 15 q-9 15 -17 41 q-5 21 -14 38 q-9 18 -28 23 q-34 5 -67 -24 q-33 -29 -61 -64 q-8 -9 -15 -17 q-7 -8 -13 -13 q1 12 5 30 q4 19 7 35 q12 50 16 82 q5 31 -4 44 q-2 3 -6 5 q-3 2 -7 3 q-30 2 -59 -41 q-29 -43 -62 -110 q-19 -38 -40 -74 q0 10 5 24 q4 15 9 29 q11 29 16 56 q6 26 -5 43 q-19 24 -63 28 q-44 4 -102 1 q-14 0 -29 0 q-14 -1 -29 0 q0 0 -1 0 q2 1 4 3 q1 2 1 4 q1 5 -2 8 q-2 3 -6 3 q-44 3 -72 -35 q-29 -38 -37 -90 q-7 -42 3 -69 q9 -27 32 -32 q2 -1 5 -1 q3 0 5 0 q10 0 20 4 q10 3 20 10 q24 17 41 48 q18 30 23 64 q3 20 1 36 q-2 16 -9 27 q8 0 16 1 q7 0 15 0 q50 2 91 -1 q42 -3 57 -21 q7 -11 1 -34 q-6 -23 -14 -47 q-9 -25 -14 -44 q-4 -20 2 -31 q2 -5 7 -7 q4 -3 9 -4 q3 -1 6 1 q2 1 4 4 q12 21 24 43 q12 22 23 44 q16 30 30 56 q15 27 28 47 q27 39 43 37 q1 0 2 -8 q1 -8 -2 -29 q-2 -17 -6 -35 q-4 -19 -9 -38 q-11 -46 -13 -67 q-2 -21 7 -26 q3 -2 8 -2 q5 0 11 5 q8 6 17 16 q9 10 19 23 q25 30 55 57 q29 27 54 24 q12 -3 18 -17 q6 -13 11 -31 q6 -25 19 -47 q13 -22 44 -23 q0 0 0 0 q30 2 62 30 q32 29 62 63 q12 14 25 28 q14 13 21 18 q1 -2 0 -9 q0 -7 -3 -20 q-3 -14 -7 -28 q-4 -15 -8 -30 q-11 -38 -14 -54 q-2 -16 5 -20 q4 -2 8 -2 q4 1 6 4 q19 27 34 48 q30 43 50 68 q20 25 33 26 q1 -5 1 -18 q-1 -12 -3 -23 q-2 -14 -2 -28 q-1 -15 0 -27 q3 -21 11 -29 q9 -8 18 -9 q19 -2 39 9 q21 11 42 26 q15 11 31 20 q15 9 25 8 q7 -1 14 -9 q6 -8 13 -18 q11 -17 26 -31 q16 -15 40 -16 q0 0 1 0 q33 0 78 38 q45 39 106 118 q2 4 2 8 q-1 4 -4 6 l0 0 ZM100 130 q-5 -30 -20 -57 q-15 -27 -36 -42 q-7 -5 -16 -8 q-9 -4 -19 -2 q-14 4 -20 25 q-5 21 0 54 q7 42 29 75 q21 32 53 34 q3 0 5 0 q-2 -1 -4 -4 q-2 -2 -2 -5 q0 -5 3 -7 q3 -3 7 -3 q2 0 2 0 q3 0 5 -2 q3 -1 4 -3 q7 -8 9 -22 q2 -14 0 -33 l0 0 Z" /><glyph glyph-name="" unicode="&#xe00e;" d="M1128 182 q-135 -151 -186 -140 q-16 5 -25 25 q-8 19 -14 42 q-5 18 -10 31 q-6 14 -16 20 q-25 18 -87 -26 q-20 -14 -42 -34 q-23 -20 -46 -43 q2 10 7 22 q4 11 7 21 q12 34 17 54 q4 20 -4 28 q0 0 0 0 q-10 8 -20 3 q-10 -5 -14 -9 q-15 -14 -35 -35 q-28 -31 -61 -59 q-34 -28 -65 -28 q-25 2 -32 24 q-7 23 -7 57 q0 19 -2 33 q-2 14 -11 20 q-13 9 -36 -1 q-22 -10 -57 -40 q-22 -19 -46 -42 q-23 -24 -46 -48 q3 11 6 19 q9 26 14 54 q5 28 -6 50 q-18 29 -60 33 q-42 3 -96 -1 q-18 -1 -36 -2 q-18 -1 -36 0 q-1 0 -2 0 q5 2 6 7 q0 5 -2 8 q-2 3 -7 3 q-43 3 -72 -35 q-28 -38 -37 -90 q-7 -42 3 -69 q9 -27 32 -32 q3 -1 6 -1 q2 0 5 0 q20 0 39 14 q24 17 42 48 q17 30 22 64 q3 20 1 36 q-2 16 -9 27 q24 2 46 3 q48 3 86 1 q38 -3 52 -24 q7 -16 3 -41 q-5 -24 -13 -47 q-7 -22 -10 -36 q-2 -14 5 -21 q4 -3 7 -3 q5 0 7 3 q27 28 55 56 q28 29 54 51 q39 33 54 38 q14 4 15 1 q3 -3 4 -15 q0 -12 1 -22 q-1 -31 8 -63 q9 -32 48 -37 q3 0 5 0 q37 2 73 32 q36 30 64 61 q11 12 22 24 q12 11 19 15 q0 -9 -6 -27 q-6 -18 -12 -33 q-12 -34 -16 -54 q-5 -19 4 -27 q2 -3 7 -3 q2 0 3 1 q2 1 3 2 q66 69 111 98 q44 29 58 21 q0 0 0 0 q5 -4 9 -16 q4 -12 8 -25 q6 -25 18 -49 q11 -24 36 -31 q3 0 6 0 q2 -1 6 -1 q31 0 79 36 q47 36 113 111 q3 3 3 7 q-1 4 -4 7 q-3 2 -7 2 q-4 0 -6 -3 l0 0 ZM99 130 q-5 -30 -20 -57 q-15 -27 -36 -42 q-6 -5 -15 -8 q-9 -4 -20 -2 q-14 4 -19 25 q-6 21 -1 54 q7 42 29 75 q21 32 53 34 q3 0 6 0 q-6 -3 -6 -9 q0 -5 3 -7 q2 -3 6 -3 q2 0 3 0 q2 0 4 -2 q2 -1 4 -3 q7 -8 9 -22 q3 -14 0 -33 l0 0 Z" /><glyph glyph-name="" unicode="&#xe00f;" d="M599 184 q-3 2 -7 1 q-5 -1 -7 -4 q-30 -48 -90 -110 q-60 -63 -109 -51 q-11 5 -12 21 q0 15 5 39 q2 12 4 24 q2 11 1 21 q-4 20 -19 30 q-15 11 -32 17 q-9 5 -18 9 q22 38 37 69 q17 35 18 50 q2 14 -6 18 q-7 4 -15 1 q-8 -3 -14 -7 q-23 -16 -47 -47 q-24 -31 -20 -57 q2 -11 8 -19 q5 -8 12 -14 q-8 -13 -17 -27 q-43 -67 -85 -115 q-41 -49 -74 -71 q-11 -8 -24 -13 q-14 -5 -24 1 q-19 13 -16 35 q3 23 18 58 q8 18 14 37 q6 18 6 35 q-2 27 -17 39 q-16 12 -33 18 q-9 4 -16 8 q-8 4 -11 11 q-7 19 9 44 q15 24 28 36 q3 3 3 7 q0 4 -3 7 q-3 2 -7 2 q-4 0 -7 -2 q-8 -7 -30 -39 q-22 -31 -11 -64 q6 -11 16 -17 q11 -6 22 -11 q15 -5 25 -14 q11 -8 12 -26 q0 -14 -5 -30 q-6 -17 -13 -34 q-15 -32 -19 -64 q-5 -32 25 -53 q9 -6 21 -6 q18 0 41 14 q23 13 50 41 q28 27 59 67 q31 39 62 87 q9 14 18 28 q11 -5 21 -10 q17 -7 27 -14 q10 -7 11 -17 q1 -8 0 -18 q-2 -10 -4 -21 q-6 -23 -5 -47 q0 -23 23 -35 q12 -5 24 -5 q51 0 123 76 q33 36 54 65 q21 29 23 32 q2 4 2 8 q-1 4 -5 6 l0 0 ZM299 192 q-9 8 -12 20 q-1 7 3 18 q4 10 13 23 q12 17 26 29 q13 12 22 17 q-3 -12 -16 -40 q-13 -27 -36 -67 l0 0 Z" /><glyph glyph-name="" unicode="&#xe010;" d="M722 347 q1 8 -22 15 q-22 7 -102 12 q-34 2 -77 3 q-43 1 -96 1 q11 22 21 43 q10 20 19 39 q29 62 35 82 q5 20 3 22 q-1 7 -9 10 q0 0 0 0 q-6 1 -11 -3 q-4 -3 -6 -6 q-12 -16 -34 -66 q-21 -49 -48 -121 q-20 1 -41 1 q-136 -1 -240 -3 q-104 -3 -111 -3 q-4 0 -6 -3 q-3 -3 -3 -7 q0 -4 3 -7 q3 -3 7 -2 q7 0 106 3 q100 2 232 2 q24 0 46 0 q-6 -13 -10 -27 q-15 -27 -32 -57 q-73 -127 -136 -209 q-62 -82 -105 -109 q-26 -16 -41 -7 q-19 12 -16 35 q3 23 18 58 q8 18 14 37 q6 18 6 35 q-2 27 -17 39 q-16 12 -33 19 q-9 4 -16 8 q-8 3 -11 10 q-7 19 9 44 q15 24 28 36 q3 3 3 7 q0 4 -3 7 q-3 2 -7 2 q-4 0 -7 -2 q-8 -7 -30 -38 q-22 -32 -11 -65 q6 -11 16 -17 q11 -6 22 -10 q15 -6 25 -14 q11 -9 12 -27 q0 -14 -5 -30 q-6 -17 -13 -34 q-16 -32 -20 -64 q-5 -32 26 -53 q27 -16 68 12 q54 40 114 123 q59 83 106 162 q-11 -32 -22 -65 q-11 -32 -21 -64 q-28 -88 -49 -164 q-22 -77 -36 -138 q-24 -106 -23 -141 q0 -35 5 -38 q5 -8 10 -11 q6 -2 9 -2 q5 0 7 3 q3 2 3 7 q0 4 -3 7 q-2 3 -7 3 q0 0 0 0 q0 0 -2 4 q-2 3 -2 15 q-1 65 37 208 q38 144 87 293 q15 47 31 91 q15 45 30 86 q9 18 18 35 q177 -2 234 -8 q57 -7 56 -11 q3 -5 9 -5 q2 0 2 0 q5 1 7 5 q1 3 0 7 l0 0 Z" /><glyph glyph-name="" unicode="&#xe011;" d="M652 183 q-3 2 -7 2 q-5 0 -7 -3 q-79 -87 -120 -112 q-42 -25 -58 -18 q-19 8 -27 34 q-8 26 -11 53 q-3 19 -7 31 q-3 13 -10 18 q-23 13 -69 -22 q-46 -35 -114 -106 q3 8 7 16 q3 8 6 15 q15 33 21 58 q6 25 -8 35 q-8 5 -16 -1 q-8 -5 -14 -11 q-7 -7 -15 -16 q-9 -9 -19 -20 q-33 -38 -73 -76 q-40 -37 -74 -40 q-2 0 -4 1 q-2 0 -4 0 q-22 5 -30 25 q-12 35 2 82 q13 47 31 74 q2 3 2 7 q-1 4 -4 6 q-4 2 -8 2 q-4 -1 -6 -4 q-19 -28 -34 -80 q-15 -52 -1 -94 q12 -30 44 -37 q6 -1 12 -1 q40 3 83 42 q43 38 78 80 q11 12 22 24 q11 11 18 17 q0 -2 0 -7 q-1 -5 -4 -13 q-3 -10 -8 -21 q-4 -12 -9 -24 q-13 -30 -18 -48 q-5 -18 3 -26 q4 -3 7 -3 q4 0 7 3 q26 28 54 57 q28 28 55 50 q38 32 53 37 q15 5 16 3 q2 -4 4 -15 q2 -11 4 -22 q4 -30 14 -61 q10 -30 38 -40 q31 -10 80 23 q49 33 118 112 q3 3 3 7 q0 4 -3 7 l0 0 ZM29 264 q0 -3 0 -4 q0 -4 3 -6 q3 -3 7 -3 q0 0 0 0 q5 0 7 3 q3 3 3 7 q0 1 0 1 q19 8 28 14 q8 6 7 14 q-1 8 -9 11 q-7 3 -13 3 q-7 1 -13 -1 q-5 -2 -8 -4 q-5 -5 -8 -12 q-2 -6 -3 -13 q-2 -2 -2 -4 q0 -3 1 -5 q0 0 0 -1 l0 0 Z" /><glyph glyph-name="" unicode="&#xe012;" d="M772 183 q-3 2 -7 2 q-4 -1 -6 -4 q-50 -66 -87 -98 q-36 -32 -58 -30 q-15 2 -26 18 q-11 16 -21 37 q-10 23 -23 42 q-14 18 -35 23 q-36 3 -69 -26 q-33 -28 -59 -62 q-7 -9 -14 -17 q-7 -8 -13 -13 q1 12 5 30 q4 18 7 35 q12 50 16 82 q5 31 -4 44 q-2 3 -6 5 q-3 2 -7 3 q-27 1 -57 -43 q-31 -45 -67 -114 q-18 -33 -37 -68 q1 13 9 33 q7 20 14 37 q15 34 20 54 q5 20 -4 29 q0 1 0 1 q-1 0 -1 0 q-9 7 -20 1 q-10 -6 -15 -12 q-16 -17 -39 -43 q-32 -39 -70 -75 q-38 -35 -70 -33 q-21 4 -30 23 q-12 34 2 83 q14 48 32 75 q2 3 1 7 q-1 4 -4 6 q-4 2 -8 2 q-4 -1 -6 -5 q-20 -30 -34 -83 q-15 -53 -1 -93 q6 -14 18 -23 q11 -9 27 -11 q4 -1 10 -1 q38 2 76 38 q39 36 72 77 q13 16 26 30 q13 14 20 19 q0 -9 -7 -26 q-6 -18 -13 -33 q-15 -34 -21 -57 q-6 -23 0 -36 q2 -5 7 -7 q4 -3 9 -4 q3 -1 6 1 q2 1 4 4 q11 20 23 40 q11 21 22 41 q16 31 31 58 q16 28 30 49 q16 24 27 32 q10 8 15 7 q1 -1 2 -9 q1 -7 -2 -28 q-2 -17 -6 -35 q-4 -19 -9 -38 q-11 -46 -13 -67 q-2 -21 8 -26 q2 -2 7 -2 q5 0 11 5 q8 6 17 16 q9 10 19 22 q23 30 52 57 q30 26 58 24 q14 -3 24 -18 q11 -15 20 -35 q11 -24 25 -43 q14 -20 37 -23 q2 -1 5 -1 q27 0 66 33 q38 33 91 103 q2 4 2 8 q0 4 -4 6 l0 0 ZM28 264 q0 -3 0 -4 q1 -4 4 -6 q2 -3 6 -3 q1 0 1 0 q4 0 6 3 q3 3 3 7 q0 1 0 1 q20 8 28 14 q8 6 7 13 q-1 8 -8 11 q-7 3 -13 4 q-8 1 -14 -1 q-5 -2 -8 -5 q-5 -5 -7 -11 q-3 -7 -4 -13 q-1 -2 -2 -4 q0 -3 1 -5 q0 0 0 -1 l0 0 Z" /><glyph glyph-name="" unicode="&#xe013;" d="M442 180 q-2 4 -5 5 q-4 1 -8 0 q-46 -22 -89 -49 q-44 -27 -83 -57 q-26 42 -29 76 q-3 35 28 67 q2 3 3 7 q0 3 -3 6 q-2 3 -6 4 q-3 0 -7 -2 q-31 -20 -80 -60 q-49 -39 -100 -86 q-8 -7 -16 -15 q-23 37 -28 89 q-5 51 47 98 q4 2 4 6 q0 4 -2 7 q-3 3 -7 4 q-4 0 -7 -2 q-57 -47 -54 -116 q1 -29 11 -55 q10 -26 22 -45 q-47 -45 -70 -78 q-23 -32 -22 -51 q0 -8 4 -13 q3 -6 9 -10 q15 -7 34 2 q20 9 37 25 q22 22 34 55 q12 32 -2 66 q5 5 10 10 q5 4 10 9 q35 32 71 62 q35 29 65 52 q-7 -21 -3 -46 q3 -21 11 -41 q9 -20 20 -38 q-27 -21 -50 -45 q-45 -44 -70 -84 q-25 -40 -27 -70 q0 -15 6 -27 q6 -11 18 -18 q11 -6 23 -6 q19 0 40 12 q22 11 43 32 q38 39 54 93 q15 54 -11 109 q38 30 82 57 q43 26 89 48 q4 2 5 5 q1 4 -1 8 l0 0 ZM11 -49 q-16 -16 -29 -21 q-13 -6 -18 -3 q-3 2 -3 6 q-3 5 12 30 q14 25 69 80 q7 -26 -3 -50 q-11 -25 -28 -42 l0 0 ZM210 -126 q-23 -24 -46 -33 q-22 -10 -37 -2 q-14 8 -13 27 q1 26 25 63 q23 37 65 78 q11 11 23 21 q12 11 24 21 q21 -47 7 -94 q-14 -47 -48 -81 l0 0 Z" /><glyph glyph-name="" unicode="&#xe014;" d="M667 347 q1 8 -22 15 q-23 7 -102 12 q-35 2 -81 3 q-46 1 -102 1 q9 25 18 46 q3 8 6 15 q3 7 5 13 q25 38 40 67 q15 28 17 43 q1 4 -1 7 q-2 3 -6 4 q-7 1 -11 -2 q-4 -3 -6 -6 q-8 -11 -21 -38 q-13 -27 -29 -66 q-26 -38 -56 -83 q-8 0 -17 0 q-136 0 -240 -2 q-104 -3 -111 -3 q-4 0 -7 -3 q-3 -3 -2 -7 q0 -5 3 -7 q2 -3 7 -3 q6 0 106 3 q99 2 232 3 q8 0 16 0 q-29 -42 -59 -84 q-51 -74 -94 -137 q-44 -63 -76 -116 q-8 24 -22 48 q-25 36 -32 90 q-7 54 47 103 q3 2 4 6 q0 4 -3 7 q-2 4 -6 4 q-4 0 -7 -2 q-29 -23 -42 -52 q-14 -29 -13 -64 q2 -30 13 -57 q10 -27 22 -45 q18 -30 25 -60 q-33 -56 -50 -95 q-16 -39 -13 -59 q2 -8 5 -12 q3 -5 6 -7 q11 -7 23 -5 q11 1 22 11 q21 21 30 65 q9 45 -2 99 q4 6 7 12 q37 58 81 123 q45 65 91 132 q36 50 67 95 l5 0 q-22 -61 -45 -127 q-22 -66 -43 -131 q-28 -88 -50 -164 q-21 -77 -35 -138 q-24 -106 -23 -141 q0 -35 5 -38 q4 -9 10 -11 q5 -2 9 -2 q4 0 7 3 q3 2 3 7 q0 4 -3 6 q-3 3 -7 3 q0 0 0 0 q-1 0 -2 4 q-2 4 -3 16 q-1 65 37 208 q38 144 88 293 q18 56 37 110 q18 54 36 102 q181 -2 238 -8 q58 -7 58 -11 q1 -3 3 -4 q3 -2 5 -2 q2 0 3 1 q4 1 6 4 q2 3 1 8 l0 0 ZM40 -153 q-8 -7 -13 -6 q-6 1 -8 2 q-1 1 -1 2 q-1 1 -2 4 q-2 9 7 37 q10 28 43 85 q5 -44 -4 -77 q-8 -33 -22 -47 l0 0 Z" /><glyph glyph-name="" unicode="&#xe015;" d="M860 182 q-79 -87 -121 -111 q-42 -25 -59 -17 q-22 9 -30 38 q-9 30 -11 58 q-2 16 -4 25 q-3 9 -8 13 q-13 8 -35 -1 q-23 -10 -57 -40 q-23 -19 -46 -42 q-23 -23 -46 -47 q1 4 2 7 q1 3 2 7 q9 26 13 56 q4 30 -9 53 q-34 38 -103 37 q-69 -1 -95 -8 q-6 -1 -8 -7 q-15 -58 -42 -116 q-27 -59 -54 -66 q-4 0 -8 1 q-3 1 -6 3 q-16 19 -18 72 q-3 53 -1 110 q0 3 -2 6 q-1 2 -5 3 q-6 2 -11 -4 q-13 -20 -24 -41 q-12 -21 -24 -42 q-12 -22 -24 -42 q-11 -20 -21 -35 q-13 -19 -19 -25 q-6 -6 -8 -6 q0 1 0 1 q-1 1 -1 2 q-5 32 21 99 q25 67 35 85 q2 3 2 7 q-1 4 -5 6 q-3 2 -7 2 q-4 -1 -6 -4 q-3 -5 -14 -30 q-11 -25 -24 -58 q-22 -62 -23 -86 q-1 -24 2 -28 q3 -7 7 -10 q4 -4 8 -5 q3 0 5 0 q15 0 36 29 q20 29 53 89 q7 12 15 25 q7 12 14 25 q-1 -55 3 -98 q5 -43 23 -61 q12 -10 29 -9 q44 13 74 85 q30 72 37 105 q43 7 97 6 q54 -2 75 -28 q10 -17 6 -43 q-4 -27 -12 -50 q-6 -19 -8 -32 q-2 -13 5 -20 q3 -3 7 -3 q4 0 7 3 q26 28 54 56 q28 29 54 51 q35 30 51 36 q15 6 17 4 q1 -3 2 -11 q1 -7 2 -14 q3 -31 14 -66 q10 -34 41 -46 q7 -2 16 -2 q32 0 78 34 q46 34 107 102 q2 3 2 7 q0 4 -3 7 q-3 2 -7 2 q-4 0 -7 -3 l0 0 Z" /><glyph glyph-name="" unicode="&#xe016;" d="M828 183 q-3 2 -7 2 q-4 0 -7 -4 q-6 -7 -15 -19 q-31 -45 -80 -94 q-49 -50 -98 -47 q-25 4 -34 28 q-11 35 0 79 q10 45 26 71 q2 2 3 4 q1 2 2 4 q3 3 2 7 q0 4 -4 6 q-3 2 -7 2 q-4 0 -6 -3 q-1 -2 -3 -4 q-1 -2 -3 -5 q-8 -11 -16 -23 q-8 -12 -16 -26 q-17 -27 -36 -55 q-18 -28 -36 -50 q-19 -22 -34 -31 q-15 -8 -26 -4 q-10 4 -7 23 q4 18 14 47 q9 24 14 48 q6 23 1 43 q-14 36 -75 38 q-61 3 -128 -10 q-2 -1 -4 -2 q-2 -2 -3 -5 l-1 -4 q-11 -39 -38 -103 q-26 -65 -57 -75 q-4 0 -8 1 q-3 1 -6 3 q-16 19 -19 72 q-2 53 0 110 q0 3 -2 6 q-2 2 -5 3 q-3 1 -6 0 q-3 -1 -5 -4 q-25 -41 -48 -83 q-13 -22 -24 -42 q-12 -20 -22 -35 q-12 -19 -18 -25 q-7 -6 -8 -6 q0 1 0 1 q-1 1 -1 2 q-6 32 20 100 q25 67 36 84 q2 3 2 7 q-1 4 -5 6 q-3 2 -7 2 q-4 -1 -6 -4 q-3 -5 -14 -30 q-11 -25 -24 -58 q-22 -62 -23 -86 q-1 -24 2 -28 q3 -7 7 -10 q4 -4 8 -5 q16 -5 37 24 q21 29 57 94 q14 24 29 50 q-1 -55 3 -98 q5 -43 23 -61 q12 -10 29 -9 q34 7 62 63 q27 56 49 127 q76 13 122 9 q46 -5 52 -25 q4 -15 -1 -36 q-6 -21 -13 -43 q-12 -31 -15 -57 q-4 -26 19 -37 q8 -3 15 -3 q30 2 62 39 q32 37 63 87 q-5 -23 -4 -44 q0 -22 7 -40 q6 -17 19 -27 q12 -10 30 -13 q57 -5 110 48 q53 53 87 100 q8 12 14 19 q3 3 3 7 q-1 4 -4 7 l0 0 Z" /><glyph glyph-name="" unicode="&#xe017;" d="M564 184 q-4 1 -8 0 q-3 -1 -5 -4 q-24 -48 -82 -109 q-57 -60 -109 -50 q-22 8 -30 39 q-7 32 0 80 q1 8 3 15 q1 8 3 15 q23 40 45 79 q23 39 45 76 q89 149 120 213 q30 63 8 75 q-2 2 -7 3 q-4 1 -11 -2 q-25 -13 -59 -67 q-35 -54 -64 -113 q-35 -70 -59 -136 q-25 -66 -37 -121 q-27 -47 -53 -96 q-26 -48 -51 -97 q-54 -109 -97 -205 q-44 -95 -72 -159 q-9 -21 -16 -37 q2 17 9 45 q8 27 21 68 q18 58 43 123 q25 65 51 132 q21 56 40 106 q19 50 33 91 q19 56 22 80 q4 24 -2 30 q-2 3 -5 5 q-4 2 -8 2 q-15 0 -36 -23 q-21 -23 -52 -65 q-30 -41 -64 -79 q-34 -37 -58 -35 q-9 2 -13 11 q-9 21 -2 58 q6 36 21 67 q1 4 0 8 q-1 3 -5 5 q-3 2 -7 1 q-4 -1 -6 -5 q-16 -35 -23 -75 q-7 -41 4 -67 q9 -18 27 -22 q32 -4 68 33 q36 38 73 88 q13 17 24 32 q12 15 22 26 q10 11 16 16 q6 4 9 5 q1 -4 -4 -25 q-4 -20 -20 -68 q-14 -40 -33 -89 q-18 -49 -39 -103 q-67 -171 -102 -278 q-34 -108 -20 -140 q1 -3 3 -4 q3 -2 5 -2 q1 0 1 0 q4 0 7 3 q3 3 4 7 q1 3 3 6 q2 4 4 9 q4 9 10 22 q6 13 13 30 q28 63 71 159 q44 95 98 204 q36 74 77 146 q-4 -48 8 -79 q12 -30 38 -40 q27 -9 61 5 q33 15 70 52 q30 31 52 62 q22 32 31 50 q2 4 1 7 q-1 4 -5 6 l0 0 ZM436 435 q17 34 35 64 q17 30 32 52 q19 26 28 35 q10 9 13 10 q1 -3 -4 -20 q-6 -18 -28 -61 q-18 -36 -45 -81 q-26 -46 -58 -99 q-26 -45 -53 -91 q14 45 35 93 q20 49 45 98 l0 0 Z" /><glyph glyph-name="" unicode="&#xe018;" d="M524 181 q-2 4 -6 4 q-4 0 -8 -2 q-108 -89 -186 -161 q-13 7 -29 12 q-15 5 -34 9 q3 3 6 6 q36 37 58 68 q21 31 8 53 q-3 5 -8 8 q-6 3 -12 3 q-38 0 -100 -49 q-62 -49 -118 -104 q-7 -6 -14 -12 q-25 15 -66 26 q49 53 66 83 q17 30 8 44 q-8 14 -29 16 q-22 3 -47 1 q-8 -1 -11 -1 q-4 0 -7 -3 q-3 -2 -3 -7 q0 -4 3 -7 q3 -3 7 -3 q5 1 12 1 q8 1 18 1 q10 1 19 0 q13 -2 17 -4 q3 -2 3 -3 q0 0 1 -1 q0 0 0 -1 q1 1 0 -7 q-2 -9 -18 -32 q-10 -14 -26 -33 q-16 -18 -38 -43 q-2 -2 -2 -4 q-1 -3 0 -5 q1 -2 2 -4 q2 -2 5 -3 q44 -9 72 -26 q-64 -61 -95 -100 q-31 -40 -30 -64 q1 -8 5 -14 q4 -6 11 -11 q19 -12 45 -5 q26 7 49 22 q34 22 58 56 q23 33 18 70 q-3 14 -11 26 q-7 12 -20 23 q3 2 6 5 q3 3 5 5 q97 92 144 122 q46 30 59 26 q3 0 4 -1 q1 -1 2 -3 q7 -12 -15 -39 q-21 -27 -49 -56 q-9 -10 -18 -20 q-2 -2 -2 -4 q-1 -3 0 -5 q2 -6 8 -7 q20 -3 37 -8 q16 -5 30 -12 q-30 -28 -55 -54 q-25 -26 -45 -50 q-41 -48 -60 -84 q-19 -37 -16 -60 q5 -22 26 -31 q9 -3 21 -4 q29 1 63 19 q33 19 62 46 q38 34 62 80 q25 45 14 90 q-9 31 -39 52 q77 72 182 157 q3 2 4 6 q0 4 -3 7 l0 0 ZM108 -49 q4 -29 -16 -58 q-21 -28 -51 -47 q-22 -15 -42 -20 q-20 -5 -30 2 q-4 2 -5 5 q-2 2 -2 6 q0 21 35 62 q35 41 86 89 q22 -16 25 -39 l0 0 ZM362 -47 q9 -38 -14 -78 q-22 -41 -57 -72 q-36 -33 -71 -48 q-34 -16 -55 -9 q-12 4 -13 16 q-4 10 9 40 q13 30 62 89 q20 24 46 50 q26 27 57 56 q14 -9 23 -20 q9 -11 13 -24 l0 0 Z" /><glyph glyph-name="" unicode="&#xe019;" d="M504 363 q-27 5 -79 9 q-52 3 -120 5 q-18 7 -31 17 q-13 10 -21 23 q-21 43 -1 91 q19 48 37 76 q8 12 10 18 q2 5 -1 10 q-1 2 -3 4 q-3 1 -6 1 q-3 2 -11 -6 q-8 -8 -30 -45 q-14 -25 -30 -55 q-15 -30 -31 -63 q-7 -14 -15 -32 q-8 -17 -16 -37 q-26 0 -52 0 q9 18 16 33 q8 15 13 26 q10 23 19 44 q8 21 15 38 q9 28 10 37 q1 9 -1 11 q-3 5 -9 6 q-6 0 -10 -3 q-4 -3 -6 -6 q-12 -16 -34 -66 q-21 -49 -48 -120 q-150 -1 -263 -3 q-112 -3 -128 -3 q-5 0 -7 -3 q-3 -3 -3 -7 q0 -4 3 -7 q3 -3 7 -2 q8 0 120 2 q112 2 264 3 q-8 -21 -16 -42 q-16 -27 -33 -48 q-2 -3 -2 -7 q1 -4 4 -7 q5 -3 9 -1 q-13 -38 -26 -77 q-13 -38 -25 -76 q-28 -88 -49 -164 q-22 -77 -36 -138 q-24 -106 -23 -141 q0 -35 5 -38 q5 -8 10 -11 q6 -2 9 -2 q5 0 7 3 q3 2 3 7 q0 4 -3 7 q-2 3 -7 3 q0 0 0 0 q0 0 -2 4 q-2 3 -2 15 q-1 65 37 208 q38 144 87 293 q14 42 28 83 q13 40 27 78 q15 26 29 51 q28 0 55 0 q-21 -50 -38 -106 q-18 -56 -27 -109 q-9 -57 2 -94 q12 -37 41 -47 q10 -4 22 -4 q49 0 109 60 q30 31 52 62 q22 32 31 50 q2 4 1 8 q-1 3 -5 5 q-4 2 -8 1 q-3 -1 -5 -5 q-24 -48 -82 -109 q-57 -60 -109 -50 q-22 8 -30 39 q-7 32 0 81 q8 50 26 106 q18 57 41 112 q35 0 68 -1 q33 0 65 -1 q8 -3 18 -6 q33 -10 79 -13 q45 -4 102 -1 q7 1 10 5 q4 3 4 7 q1 5 -2 9 q-3 3 -9 5 l0 0 ZM177 378 q12 27 24 53 q12 25 23 48 q-3 -19 0 -37 q2 -18 12 -35 q10 -16 28 -30 q-42 1 -87 1 l0 0 Z" /></font>
</defs>
</svg>
